<svg xmlns="http://www.w3.org/2000/svg" viewBox="0 0 283.48481 296.2086"><defs><style>.cls-1{fill:#fff;}.cls-2{fill:#ffcca9;}.cls-3{fill:#ffd91d;}.cls-4{fill:#84480a;}.cls-5{fill:#91999a;}.cls-6{fill:#1b3335;}.cls-7{fill:#620d08;}.cls-8{fill:#c42c38;}.cls-9{fill:#c3e2de;}.cls-10,.cls-14,.cls-16,.cls-20,.cls-21{fill:none;}.cls-10,.cls-14,.cls-16{stroke:#040203;}.cls-10,.cls-14,.cls-20,.cls-21{stroke-linecap:round;stroke-linejoin:round;}.cls-10,.cls-20,.cls-21{stroke-width:1.4887px;}.cls-11{fill:#39514e;}.cls-12{fill:#112828;}.cls-13{fill:#3c6368;opacity:0.72;}.cls-14{stroke-width:1.98493px;}.cls-15{fill:#040203;}.cls-16{stroke-miterlimit:10;stroke-width:0.99246px;}.cls-17{fill:#ffb052;}.cls-18{fill:#e07228;}.cls-19{fill:#ffe3c2;}.cls-20{stroke:#945e2a;}.cls-21{stroke:#99460b;}.cls-22{fill:#ffbe88;}</style></defs><title>morti smith eating pancake</title><g id="Layer_7" data-name="Layer 7"><path class="cls-1" d="M115.78482,11.8957c9.37791,0,19.62158,1.13755,25.3027,3.50478A114.5354,114.5354,0,0,1,153.867,21.78024c1.93352,1.08553,3.60347,2.02277,5.04665,2.65465,2.75641,1.20571,5.09317,4.93082,6.97046,7.92424a17.06491,17.06491,0,0,0,2.236,3.1557c1.83175,1.30894,10.47806,9.74635,14.15034,15.13171a19.64385,19.64385,0,0,1,3.28078,10.0477,16.8175,16.8175,0,0,0,.50781,3.15041c.27724.90283,6.71759,22.189,1.511,36.56518.04753,2.04306.31983,18.18123-2.37259,28.48923.83159,1.51972,3.70043,7.2986,2.33577,12.44071-1.44412,5.44352-9.70558,9.87518-11.26312,10.66894-1.31323,1.90741-10.44993,14.729-23.55647,22.00872l44.39535,55.6497a.99362.99362,0,0,1,.21706.61935v1.83858l9.65424,11.676,16.46583-12.57835.20058-2.01113a.98375.98375,0,0,1,.15124-.43417l15.19518-23.83565c-.157-2.30089-.60965-7.61111-1.14853-9.23071l-.14636-.43222c-.69-2.01984-1.84536-5.40042-.42353-7.2516a3.14668,3.14668,0,0,1,2.66347-1.14032q.18463,0,.37889.01214c3.43288.23459,5.40811,3.80606,6.34824,6.17871,3.76634-5.95576,8.12294-12.33989,9.70369-12.71112a1.29669,1.29669,0,0,1,.27731-.02462c2.49808,0,14.12137,4.091,21.02869,6.61521a.983.983,0,0,1,.3547.22489c2.46372,2.423,3.71308,4.12006,3.71308,5.0437,0,.34506-.001,1.25317-11.50254,17.95158a5.6056,5.6056,0,0,1,2.7186,4.73848,7.56542,7.56542,0,0,1-2.9396,5.62523,7.38987,7.38987,0,0,1-4.83536,6.82125c-.09888,3.4271-3.33988,5.21046-4.73062,5.8191-.94889,6.30954-11.63919,6.85807-12.10926,6.87943l-4.23152.22287c-2.34164,2.46759-17.85176,18.79771-21.968,22.68519-6.9445,6.55848-12.49727,9.85749-16.56537,9.85749a6.10507,6.10507,0,0,1-2.87492-.67234c-4.82083-2.52575-15.80289-16.66833-18.01166-19.55175a17.74377,17.74377,0,0,1-2.84047.23866,8.64421,8.64421,0,0,1-5.421-1.53542c-2.18553-1.78817-12.94659-15.59936-17.57648-21.59l5.04084,52.93205a.99164.99164,0,0,1-.73177,1.05262c-.14729.0397-15.11665,3.94076-46.11083,4.34494q-4.72121.061-8.99276.05911c-25.10671,0-38.31694-1.43247-38.46189-1.448a.99331.99331,0,0,1-.88194-1.02643l1.164-29.298c-1.15335,4.38559-1.98588,8.4873-1.99846,8.55224-.01359.07947-.49383,2.69248-3.98683,4.35846a5.31022,5.31022,0,0,1-2.30134.46741,15.73952,15.73952,0,0,1-6.39-1.82809L53.25206,273.385l-.80688,13.07748a.99344.99344,0,0,1-.85583.92264,81.48639,81.48639,0,0,1-10.8275.65378,120.10587,120.10587,0,0,1-12.48232-.65186.99183.99183,0,0,1-.86935-.87609,42.99537,42.99537,0,0,1,1.58464-16.02872c2.3983-7.43475,7.26371-27.07082,8.50765-33.78835l.22876-1.23576c1.80659-9.76959,3.78959-20.33971,4.45347-22.11041.70512-1.8803,3.62583-4.35854,4.6333-5.17365.22-1.0283,1.04623-3.75564,4.09829-10.58853a55.84019,55.84019,0,0,1,6.42953-10.61706,6.46883,6.46883,0,0,0-1.62524-2.87035,5.24194,5.24194,0,0,0-1.23234-.79189,8.16839,8.16839,0,0,1-1.2483-.75593,6.908,6.908,0,0,1-2.40829-4.45329,72.737,72.737,0,0,1-9.37483,6.4091l-1.05882.59024c-3.00165,1.68252-6.32118,3.54341-9.59177,3.54341a7.74208,7.74208,0,0,1-2.54847-.41771,17.07372,17.07372,0,0,1-9.91694-9.43617.75451.75451,0,0,1-.05376-.23747c-.25394-4.19953,1.16353-8.19265,2.42688-11.203a47.03743,47.03743,0,0,1,8.75435-13.98558,34.30223,34.30223,0,0,1,14.77453-8.90024l.01028-.00114.0044,0,.0095-.001a15.996,15.996,0,0,1,4.14147-1.2031l3.51453-.65572-.79447-1.72029c-1.96412-.46671-8.94383-2.50829-12.26918-8.54788-2.32606-4.22524-2.32318-9.42842.00683-15.46947-1.48389-3.414-11.2273-27.89077.15023-57.4723,13.64735-35.484,59.81824-45.8157,61.777-46.23829a76.21859,76.21859,0,0,1,14.99141-1.25478M53.93588,142.22324l5.29953-.98864a45.24969,45.24969,0,0,1,6.32794-.87182q.51826-.02152,1.035-.021a52.49556,52.49556,0,0,1,6.54755.54338c2.79129.35136,5.95476.74971,8.55464,2.46277.28836.19047.56794.39595.84759.60135a8.21061,8.21061,0,0,0,1.64765,1.0303,8.529,8.529,0,0,0,2.27035.4667,5.64264,5.64264,0,0,1,5.48565,3.618,12.20437,12.20437,0,0,0,.80206,1.31718,11.683,11.683,0,0,0,2.38517,2.20495c.35183.27134.70365.54176,1.04289.82475a7.603,7.603,0,0,1,2.46865,3.26747c.94688.94812,4.05659,5.46983,6.10082,25.02759a11.72813,11.72813,0,0,1-.56724,5.80542,19.92733,19.92733,0,0,1-2.33,4.22282,39.29013,39.29013,0,0,1-6.85129,8.47952,14.14063,14.14063,0,0,1-9.032,3.60254c-.23347,0-.46271-.02841-.69412-.04312a11.09221,11.09221,0,0,1-1.85876.15747,14.35526,14.35526,0,0,1-10.55847-4.70353,22.81052,22.81052,0,0,1-2.66583-4.45153c-.45794-.91783-.93141-1.86671-1.46735-2.73706-.30824-.501-.64259-.98564-.976-1.47123a19.92856,19.92856,0,0,1-1.77218-2.92312,13.20151,13.20151,0,0,1-.92347-2.965c-1.13635.08155-1.23129.53418-1.53882,2.7896-.34988,2.56453-.70847,17.02406-.71188,17.17041a.74435.74435,0,0,1-.645.71912l-4.31435.57959a.69353.69353,0,0,1-.09936.00676.74528.74528,0,0,1-.74388-.77535l.64053-15.2153a50.87969,50.87969,0,0,0-4.91329,8.44153c-3.7823,8.467-3.99842,10.30748-4.00618,10.38118a1.07543,1.07543,0,0,1-.37994.721c-1.41747,1.1059-3.83853,3.3176-4.29889,4.54559-.65858,1.75618-3.15864,15.27753-4.36047,21.77506l-.2287,1.23576c-1.25318,6.767-6.15447,26.54749-8.57065,34.03647A41.25706,41.25706,0,0,0,29.31806,285.501c1.76188.17355,6.21842.5549,11.43856.5549a81.75882,81.75882,0,0,0,9.75791-.53354l.76518-12.39908a.995.995,0,0,1,.05523-.27038l2.3833-6.72144a.99373.99373,0,0,1,1.43441-.52628c1.18814.69053,4.20481,2.12647,6.44277,2.12647a3.35424,3.35424,0,0,0,1.44458-.28012c2.5117-1.19794,2.87859-2.87464,2.89265-2.94541.08817-.43713,2.11282-10.41212,4.31488-16.03842a.99231.99231,0,0,1,1.91559.40129l-1.42665,35.90514c3.38452.31641,16.058,1.34509,37.3264,1.34509q4.25235,0,8.96372-.059c26.68171-.34793,41.33265-3.29141,44.81112-4.0823l-5.28507-55.50141a.99281.99281,0,0,1,1.77559-.69781c4.66283,6.08169,17.23047,22.24806,19.35983,23.9907a6.81331,6.81331,0,0,0,4.17489,1.0857,14.87234,14.87234,0,0,0,3.02822-.31035,1.00476,1.00476,0,0,1,.22-.02448.98881.98881,0,0,1,.78993.39371c.12793.16866,12.85453,16.931,17.72382,19.48194a4.1787,4.1787,0,0,0,1.96571.44488c3.45908,0,8.73126-3.2142,15.19112-9.31406,4.3217-4.08221,21.98447-22.7084,22.16276-22.8964a.99345.99345,0,0,1,.66776-.30823l4.63577-.24423c.10852-.00483,10.07869-.51854,10.28417-5.635a.99111.99111,0,0,1,.67749-.90135c.17538-.06012,4.35074-1.51294,3.964-4.79853a.99335.99335,0,0,1,.79086-1.08941,5.42468,5.42468,0,0,0,4.08225-5.6146.99279.99279,0,0,1,.442-.82576c.02228-.01452,2.485-1.71258,2.485-4.29741,0-2.46182-2.50925-3.45524-2.5344-3.46495a.99357.99357,0,0,1-.46136-1.49064c4.21213-6.102,10.96164-16.09552,11.75058-17.80423a23.18807,23.18807,0,0,0-2.93958-3.40871c-8.71118-3.17995-18.37512-6.39577-19.9443-6.43935-1.20952.78988-5.79582,7.47058-9.6193,13.61046a.991.991,0,0,1-.847.46686,1.03945,1.03945,0,0,1-.15227-.01126.99523.99523,0,0,1-.80734-.74536c-.441-1.80852-2.24083-6.54506-5.2376-6.74852q-.14336-.01071-.27348-.01068a1.27981,1.27981,0,0,0-1.05823.36631c-.77435,1.008.27718,4.08719.72694,5.40142l.15018.44583c.76376,2.29211,1.24835,9.73852,1.26871,10.05453a.9894.9894,0,0,1-.15412.59606l-15.24264,23.91118-.22,2.204a.99249.99249,0,0,1-.38477.69006l-17.56683,13.41959a.99337.99337,0,0,1-1.36752-.15607L195.56888,233.1156a.99419.99419,0,0,1-.22771-.63295v-1.84923l-44.91971-56.30589a.99214.99214,0,0,1,.315-1.49835c14.00888-7.33687,23.93447-21.99706,24.03335-22.14435a1.002,1.002,0,0,1,.38959-.33971c.09112-.04458,9.126-4.5034,10.45482-9.51423,1.33748-5.03882-2.29506-11.2253-2.33194-11.2873a.9916.9916,0,0,1-.10559-.76959c2.85624-10.4727,2.40942-28.32252,2.4046-28.50181a.98949.98949,0,0,1,.062-.37124c5.09411-13.75347-1.41506-35.25717-1.48189-35.47283a18.46,18.46,0,0,1-.58448-3.53223,17.70669,17.70669,0,0,0-2.94635-9.13088c-3.48912-5.11788-11.9551-13.41377-13.66381-14.635-.74825-.534-1.50035-1.70047-2.76418-3.71641-1.64088-2.61636-3.88847-6.2-6.08371-7.16047-1.53424-.67118-3.24388-1.63065-5.223-2.74189a112.95611,112.95611,0,0,0-12.572-6.27894c-5.36993-2.23743-15.444-3.33619-24.63985-3.33619a73.91765,73.91765,0,0,0-14.47186,1.19472C99.296,15.50418,54.13547,25.60765,40.869,60.10113c-11.89212,30.91906-.15165,56.05482-.03194,56.30541a.995.995,0,0,1,.02711.79812c-2.25241,5.63058-2.34205,10.39758-.26558,14.16875,3.36123,6.106,11.32517,7.64995,11.40511,7.665a.991.991,0,0,1,.71965.55924l1.21253,2.62564M115.78494,1.89571h-.00006A85.75274,85.75274,0,0,0,98.6853,3.37524,124.64646,124.64646,0,0,0,69.64641,14.26413C49.99118,24.56448,36.172,38.927,29.68294,55.79907a89.75531,89.75531,0,0,0-1.42439,61.34941c-2.46628,9.11378-.466,15.815,1.84057,20.0047q.60534,1.09946,1.28881,2.087a41.25237,41.25237,0,0,0-9.23287,7.29941A56.96056,56.96056,0,0,0,11.493,163.47571c-1.55177,3.6976-3.57053,9.34566-3.18771,15.6763a10.7147,10.7147,0,0,0,.76324,3.37887A27.00259,27.00259,0,0,0,24.99147,197.6736a17.76341,17.76341,0,0,0,5.81476.96617,23.51162,23.51162,0,0,0,9.76308-2.35889c-1.17743,2.74117-1.95844,4.74965-2.48718,6.25489-3.91606,3.71569-4.90017,6.33923-5.26072,7.30066-.72612,1.93675-1.57065,5.67216-4.92347,23.80334l-.22841,1.23383c-1.18006,6.37265-5.94712,25.58-8.19182,32.53863a53.01355,53.01355,0,0,0-2.00524,20.21314,10.94109,10.94109,0,0,0,9.6297,9.69217,130.74935,130.74935,0,0,0,13.65971.72134,90.84222,90.84222,0,0,0,12.183-.746,11.0337,11.0337,0,0,0,7.88417-5.166,10.98989,10.98989,0,0,0,7.652,4.46686l.0517.00571c.57059.06128,14.28694,1.50488,39.52724,1.50488,2.97688,0,6.046-.02017,9.12206-.05994,32.40371-.4226,47.93882-4.51477,48.5843-4.68878a10.95075,10.95075,0,0,0,8.08287-11.66742l-2.04112-21.43307a18.37745,18.37745,0,0,0,8.12825,2.50937c7.91418,9.95565,14.00286,16.08685,18.12693,18.24752a16.02844,16.02844,0,0,0,7.51583,1.81443c6.89288,0,14.33841-3.99964,23.43147-12.58722,3.45288-3.261,13.847-14.12815,19.606-20.17879l.2235-.01176c7.26779-.33989,15.89236-3.2389,19.712-10.07483a16.81789,16.81789,0,0,0,5.11161-6.10459,16.99327,16.99327,0,0,0,5.67294-8.64326,16.82739,16.82739,0,0,0,3.62219-10.31008,15.43953,15.43953,0,0,0-.69406-4.60543c3.0433-4.48682,5.21069-7.794,6.577-10.03405,1.69864-2.78482,2.901-4.9924,2.901-8.05058,0-4.63359-2.6789-8.21759-6.70111-12.17342a11.01921,11.01921,0,0,0-3.9372-2.48869c-19.76135-7.22171-22.58783-7.22171-24.45816-7.22171a11.28489,11.28489,0,0,0-2.473.26865l-.09053.02087c-2.9492.6926-5.29785,2.15976-9.09091,7.11337a15.01566,15.01566,0,0,0-3.993-.82254l-.056-.0037q-.51495-.03229-1.00466-.03177a13.014,13.014,0,0,0-10.596,5.05142c-4.68512,6.09993-2.17789,13.4387-1.10724,16.57246l.04308.12728c.125.62236.30451,2.03122.47277,3.76741l-13.38514,20.99636a10.98905,10.98905,0,0,0-1.09388,2.24531l-5.71592,4.36645-1.41107-1.70657a11.03914,11.03914,0,0,0-2.21413-4.87059L167.23909,176.19a94.43032,94.43032,0,0,0,15.80824-16.48436c5.16542-2.97494,12.14849-8.25116,14.15155-15.8016,1.62212-6.11229.10749-12.10077-1.50509-16.13513,1.83423-9.53282,1.94787-21.01358,1.90152-25.83339,5.03711-16.67893-1.02552-37.89115-1.9388-40.90184-.0461-.26819-.10963-.89072-.15692-1.35435a29.422,29.422,0,0,0-4.96736-14.66688C186.81415,39.56,179.03947,31.63583,175.2103,28.39135c-.26941-.41248-.61533-.96407-.85382-1.34434-2.47019-3.93883-5.85242-9.33194-11.43525-11.77394-.98924-.43312-2.52876-1.29747-4.15876-2.21259a124.81511,124.81511,0,0,0-13.82912-6.89094c-9.25707-3.85724-23.46823-4.27377-29.14847-4.27383ZM49.89219,112.16325c-.50285-1.10558-9.79175-22.20749.31022-48.4723,11.3463-29.50076,52.70206-38.73518,53.11841-38.825a64.70254,64.70254,0,0,1,12.36318-.96982c10.05376,0,17.82647,1.33064,20.79377,2.567a102.89218,102.89218,0,0,1,11.52287,5.768c1.79446,1.0076,3.50507,1.96806,5.19829,2.76828a41.23314,41.23314,0,0,1,2.532,3.72737c1.59543,2.545,2.97809,4.7504,5.29735,6.44931,1.71017,1.39163,8.76085,8.439,11.33983,12.22193.89552,1.31341,1.02318,2.18512,1.26046,4.51235a27.30337,27.30337,0,0,0,.97548,5.45983c1.44135,4.77446,4.8597,20.42376,1.66188,29.05747a10.883,10.883,0,0,0-.68188,4.077c.11735,4.6273-.02448,18.1933-2.05495,25.63813a11.04678,11.04678,0,0,0,1.10968,8.42981,12.12921,12.12921,0,0,1,1.22272,3.31343,24.05451,24.05451,0,0,1-5.13751,3.49664,10.9828,10.9828,0,0,0-4.24976,3.71805c-.07435.10913-8.79883,12.80595-20.37724,18.86989a10.99211,10.99211,0,0,0-3.48747,16.59976l42.889,53.76039a11.02126,11.02126,0,0,0,2.35994,5.15262l1.60605,1.94224a10.94566,10.94566,0,0,0-6.52841-.68811c-3.28926-3.86119-10.59041-13.11122-16.67187-21.04326a11.06661,11.06661,0,0,0-8.72612-4.30329,10.98926,10.98926,0,0,0-10.939,12.04818l4.40784,46.28893a273.71068,273.71068,0,0,1-34.11073,2.333c-2.97476.03857-5.947.05816-8.83329.05816-11.71485,0-20.72427-.31454-26.949-.64428L82.15524,249.266a10.99212,10.99212,0,0,0-21.219-4.4453,94.75591,94.75591,0,0,0-3.3097,11.06012,10.99173,10.99173,0,0,0-13.33618,6.91659L41.90988,269.511a10.98122,10.98122,0,0,0-.61024,2.981l-.2199,3.56342q-.16089.0005-.32309.00052-.4338,0-.86-.00373c.14142-.64978.30853-1.28448.50433-1.89157,2.55941-7.933,7.55735-28.10934,8.88629-35.28521l.22888-1.2369.01024-.05528c.7273-3.932,2.7577-14.90929,3.69016-19.09085.37285-.35437.83965-.76866,1.27714-1.11A10.92937,10.92937,0,0,0,56.1123,215.821a10.78177,10.78177,0,0,0,3.09424.024l4.28387-.57548a10.69623,10.69623,0,0,0,7.54832-4.72146A24.754,24.754,0,0,0,83.418,213.93089a21.08966,21.08966,0,0,0,2.22671-.1185c.10418.00261.21323.00415.32617.00415a24.09073,24.09073,0,0,0,15.52865-6.0003,47.78625,47.78625,0,0,0,8.68535-10.55,29.12819,29.12819,0,0,0,3.411-6.375,21.92534,21.92534,0,0,0,1.07375-10.48769c-1.909-18.06852-4.79893-25.36235-7.42688-29.00549a18.31968,18.31968,0,0,0-4.65611-5.6667c-.42212-.35213-.859-.69219-1.29806-1.03078l-.04218-.03252c-.16486-.127-.36192-.27871-.52334-.40657l-.0249-.04509a16.68793,16.68793,0,0,0-4.99994-5.91534,16.25979,16.25979,0,0,0-7.68277-2.74118c-.24279-.17476-.50985-.36211-.80323-.55588-4.55341-3.00024-9.52652-3.62623-12.81735-4.04046a61.12167,61.12167,0,0,0-7.79612-.62172q-.72467,0-1.45041.0296a48.48149,48.48149,0,0,0-6.73657.8457,10.99332,10.99332,0,0,0-4.43648-1.98253c-1.47279-.33046-3.94723-1.46818-4.6163-2.68353-.52288-.94971-.22006-3.10753.78988-5.63218a11.0312,11.0312,0,0,0-.25663-8.75558Zm201.10462,93.21749a10.94159,10.94159,0,0,0,4.73254-4.20055c1.8098-2.90625,3.50332-5.47607,4.87023-7.46445,1.47565.478,3.21323,1.05809,5.16046,1.72811-1.811,2.70233-3.91907,5.80415-6.01163,8.83563a11.0619,11.0619,0,0,0-.74179,11.26059,10.96766,10.96766,0,0,0-.60873,1.736,11.15249,11.15249,0,0,0-4.64641,5.85606,11.09928,11.09928,0,0,0-4.17633,4.69522,14.049,14.049,0,0,1-1.85378.26442l-4.63519.2442a10.9527,10.9527,0,0,0-6.35127,2.44286l12.53885-19.66974a10.89048,10.89048,0,0,0,1.72305-5.72833Zm-44.17258,50.78134a11.0605,11.0605,0,0,0,6.64882-2.23831l3.38771-2.58791c-1.2684,1.28557-2.29237,2.30414-2.94577,2.92133a43.80083,43.80083,0,0,1-7.23825,5.78221c-1.20726-1.203-2.76661-2.9075-4.49258-4.90079a10.98137,10.98137,0,0,0,4.64007,1.02347Z" transform="translate(-8.25796 -1.89571)"/></g><g id="Layer_6" data-name="Layer 6"><path class="cls-2" d="M151.197,173.70816c14.39478-7.53844,24.39793-22.471,24.39793-22.471s9.5152-4.63561,10.97907-10.152-2.43979-12.05009-2.43979-12.05009c2.92775-10.73509,2.43979-28.78956,2.43979-28.78956,4.87959-13.17488-.488-32.93721-1.46387-36.10894s0-7.56336-3.65969-12.9309-12.199-13.66284-13.90682-14.88274-5.12357-9.27121-9.02724-10.97907-9.02723-5.36754-17.81049-9.02723S111.18436,11.925,101.003,14.12077,52.14136,28.02759,39.9424,59.7449s0,57.09116,0,57.09116c-7.80734,19.51835,11.88026,23.178,11.88026,23.178l2.10322,4.55383L63.46743,181.333s-7.57184,7.53986-11.64477,16.65761-4.09043,10.72466-4.09043,10.72466-3.88616,3.02869-4.6181,4.98053-3.41571,16.59059-4.63561,23.178S32.379,263.22365,29.93925,270.787a42.42771,42.42771,0,0,0-1.543,15.61467s12.3689,1.46388,23.05859,0l.81525-13.21689,2.38334-6.72209s5.7453,3.34839,8.814,1.88451,3.441-3.65969,3.441-3.65969,2.06754-10.24713,4.26335-15.85865l-1.46388,36.84088s16.10264,1.78918,47.332,1.38254S162.908,282.742,162.908,282.742l-5.36754-56.35922s16.83457,21.95814,19.51834,24.154,8.05132.97592,8.05132.97592,12.9309,17.07855,18.05447,19.76233,13.90682-4.87959,18.29845-9.02724,22.20211-22.934,22.20211-22.934l4.63561-.244s10.97907-.488,11.22305-6.58744c0,0,5.12356-1.70786,4.6356-5.85551a6.41842,6.41842,0,0,0,4.87959-6.58744s2.92775-1.95183,2.92775-5.12356-3.17173-4.39163-3.17173-4.39163,11.955-17.32253,11.955-18.29845-3.41571-4.33632-3.41571-4.33632-19.03039-6.95781-20.73824-6.5563-10.21238,14.061-10.21238,14.061-1.74261-7.20544-6.13424-7.50473-2.19581,5.31224-1.46387,7.508,1.21989,9.80335,1.21989,9.80335l-15.37069,24.10977-.244,2.4398-17.56651,13.41886-10.49111-12.68692v-2.19582Z" transform="translate(-8.25796 -1.89571)"/><path class="cls-3" d="M268.795,210.5241S280.75,193.20159,280.75,192.22566s-3.41571-4.33634-3.41571-4.33634-19.03037-6.95779-20.73823-6.5563-10.21238,14.061-10.21238,14.061-1.74262-7.20543-6.13421-7.50473-2.19585,5.31227-1.46392,7.50806,1.21993,9.80337,1.21993,9.80337l-15.37072,24.10978-.24394,2.43979-17.56651,13.41887-10.49114-12.68694V230.2864l-44.80464-56.16274c-12.53047,5.00909-25.73605,7.56882-39.843,6.3942-10.4488-.87-19.46245-5.16416-29.35893-8.229-7.69469-2.383-15.45086-4.4922-23.049-7.10014L63.46745,181.333s-7.57184,7.53986-11.6448,16.65764-4.0904,10.72466-4.0904,10.72466-3.8862,3.0287-4.61814,4.9805-3.41571,16.59058-4.63557,23.17807-6.0995,26.34974-8.53929,33.9131a42.42816,42.42816,0,0,0-1.543,15.61466s12.36892,1.46392,23.05863,0l.81522-13.21685,2.38333-6.72209s5.74532,3.34835,8.81406,1.88449,3.441-3.65971,3.441-3.65971,2.0675-10.24709,4.26335-15.85865l-1.46392,36.84088s16.10265,1.78921,47.332,1.38256S162.908,282.742,162.908,282.742l-5.36757-56.35924s16.83458,21.95815,19.51836,24.154,8.05136.97592,8.05136.97592,12.93087,17.07858,18.05444,19.7623,13.9068-4.87957,18.29844-9.02722,22.20215-22.934,22.20215-22.934l4.63558-.244s10.97907-.48794,11.22307-6.58744c0,0,5.12351-1.70786,4.63558-5.8555a6.41843,6.41843,0,0,0,4.87958-6.58743s2.92778-1.95186,2.92778-5.12358S268.795,210.5241,268.795,210.5241Z" transform="translate(-8.25796 -1.89571)"/><path class="cls-4" d="M186.36457,99.36894a2.736,2.736,0,0,1,.76664.128l.10582-1.31636,1.47077-9.38026s-.29409-8.23374-.44111-11.17443-3.52875-15.2913-3.67583-17.05568-.88215-5.44014-.88215-5.44014c-1.32333-2.49957-5.4402-8.23381-6.32236-9.55707s-9.84274-9.25014-10.73332-9.99818-4.558-7.79264-5.4402-8.82187-7.7927-4.411-10.43923-5.58722a73.18154,73.18154,0,0,0-27.642-8.08673c-16.17352-1.61736-24.26025.441-44.25655,8.67485S45.67269,48.65767,45.67269,48.65767A81.061,81.061,0,0,0,34.74722,79.83289c-2.35462,18.17771,5.086,36.54381,5.086,36.54381l-.82134,3.141c.77845-2.114,3.078-5.9672,9.79865-8.25228,0,0-1.53746-38.628,21.90842-56.11634S119.14813,37.08429,142.2096,43.234s34.78447,24.59893,40.93418,39.20452C185.14428,87.18975,186.049,93.29416,186.36457,99.36894Z" transform="translate(-8.25796 -1.89571)"/><path class="cls-5" d="M224.63474,229.31052l16.16149-24.74079,7.73-12.03753s7.49114-10.86947,8.48932-11.19915,19.88673,6.06924,20.31869,6.5563,3.41571,3.946,3.41571,3.946l-53.99552,43.17308-1.17985-1.881Z" transform="translate(-8.25796 -1.89571)"/><path class="cls-6" d="M269.73721,209.28119,280.75,192.22567c-1.47-1.63418-21.35182-7.45345-21.35182-7.45345s-33.24157,49.29475-32.6437,50.23622l5.86326,1.97543,12.92558,2.2951,9.28457-3.90056Z" transform="translate(-8.25796 -1.89571)"/><path class="cls-1" d="M76.61172,106.38594c-6.66455-8.71213-6.03051-20.8501.65082-29.54938,3.89257-5.06824,10.29807-9.85179,20.73011-10.541,0,0,13.85266-1.52322,21.34765,15.7658s-6.83959,33.0477-22.34944,33.62424A23.96732,23.96732,0,0,1,76.61172,106.38594Z" transform="translate(-8.25796 -1.89571)"/><path class="cls-1" d="M136.09125,95.332s1.46165-14.43385,14.70791-18.91018,24.20868-.27406,29.32448,12.15c5.00015,12.14323-1.17026,27.25364-13.73459,32.11015a11.92847,11.92847,0,0,1-1.7931.53913C151.76491,123.97649,134.75288,114.15837,136.09125,95.332Z" transform="translate(-8.25796 -1.89571)"/><path class="cls-7" d="M83.6452,149.41419s6.67794-12.79036,23.487-13.52119,29.41583,2.46654,33.43539,11.51054-1.00489,22.67814-11.14513,25.31616a52.68226,52.68226,0,0,1-30.506-.98627" transform="translate(-8.25796 -1.89571)"/><path class="cls-1" d="M129.27448,172.58472a8.71716,8.71716,0,0,0-2.12838-1.91085,3.92654,3.92654,0,0,0-2.75417-.54856,5.22967,5.22967,0,0,0-1.55542.67631c-.95815.56721-2.19225,1.394-2.32936,2.499a10.6775,10.6775,0,0,0-1.78019-2.69086,3.60849,3.60849,0,0,0-2.90624-1.15587,4.13742,4.13742,0,0,0-1.68708.701,9.04638,9.04638,0,0,0-2.521,2.09343,5.739,5.739,0,0,0-3.88656-4.02577,4.07077,4.07077,0,0,0-2.66369-.1114,4.81961,4.81961,0,0,0-1.11312.62871,7.36972,7.36972,0,0,0-2.6834,2.9573s-1.78645,1.94536,12.15333,2.75975S129.27448,172.58472,129.27448,172.58472Z" transform="translate(-8.25796 -1.89571)"/><path class="cls-1" d="M139.20935,145.76585a4.86342,4.86342,0,0,1-4.52365-1.07787,5.349,5.349,0,0,1-1.34331-4.70144c-1.00889.85231-1.63745,2.16583-2.8267,2.74024a3.64676,3.64676,0,0,1-4.03188-.94621,8.47631,8.47631,0,0,1-1.90212-4.17923c-.54884,1.94866-2.41617,3.24985-4.32327,3.92915a3.65752,3.65752,0,0,1-.98682.23734,3.24378,3.24378,0,0,1-1.56785-.37209A6.96592,6.96592,0,0,1,113.9601,136.53c-.39453,1.57589-.88282,3.29169-2.223,4.20983a4.03711,4.03711,0,0,1-4.54216-.23741,6.016,6.016,0,0,1-2.23387-4.15411s3.22187-2.2565,16.03332,0,17.51228,7.36026,17.51228,7.36026Z" transform="translate(-8.25796 -1.89571)"/><path class="cls-8" d="M98.7304,163.11446a14.80527,14.80527,0,0,1,6.172-1.85767,12.56014,12.56014,0,0,1,7.19484,2.2079,3.675,3.675,0,0,1,1.17641,1.46276,1.84358,1.84358,0,0,1-.19478,1.80167,2.92344,2.92344,0,0,1-1.87153.80976c-1.29973.2205-3.7054.05666-5.00513.27717a8.16327,8.16327,0,0,0-4.30982,2.90269c-.322.40546-.79914.89679-1.26218.66507a1.06705,1.06705,0,0,1-.443-.662A34.3614,34.3614,0,0,1,98.7304,163.11446Z" transform="translate(-8.25796 -1.89571)"/><path class="cls-9" d="M62.60671,235.00844s.55687,10.60537.30253,11.36294-2.43161,4.06336-4.485,3.85675a5.86507,5.86507,0,0,1-3.45378-1.81828c-1.566-2.30092-1.93437-6.14176-2.05048-9.42618-.1085-3.0691.32948-6.46672,2.609-8.52458a4.36077,4.36077,0,0,1,3.82955-1.178,4.43158,4.43158,0,0,1,2.82646,2.641C62.71918,233.14712,62.46716,233.67936,62.60671,235.00844Z" transform="translate(-8.25796 -1.89571)"/><path class="cls-2" d="M53.04059,270.4117l5.52125-13.51877a25.02914,25.02914,0,0,0-4.636-2.53741c1.36724-1.163,2.01334-4.75765,2.01334-4.75765a23.16869,23.16869,0,0,1-2.53478-3.48894c-.21145-.74008,1.79734-12.36988,1.79734-12.36988a13.52421,13.52421,0,0,1,4.65192-1.163,2.62949,2.62949,0,0,1,2.64314,1.48016l.31717,2.74886s4.44047-3.80612,4.65192-5.60345a9.39262,9.39262,0,0,0-.55753-3.80612,6.42179,6.42179,0,0,0,1.207-3.70039c.01509-2.22024-2.30069-3.38322-2.30069-3.38322a3.57714,3.57714,0,0,0,2.17988-4.229,5.16169,5.16169,0,0,0-2.3257-2.74887s.95127-1.6916,1.23954-2.326-.49972-3.066-2.40278-4.96909-8.24659-1.37444-10.57974,0-8.29185,4.49586-8.29185,4.49586a18.56549,18.56549,0,0,0-2.5199,3.161c-.3418.88753-8.2995,38.56228-8.2995,38.56228s-6.24682,23.54551-6.4184,24.82836,0,9.31519,0,9.31519l11.26763.71074,11.791-.71074Z" transform="translate(-8.25796 -1.89571)"/><path class="cls-10" d="M56.365,255.5185s10.51724,5.88717,9.91043,10.45009" transform="translate(-8.25796 -1.89571)"/><path class="cls-10" d="M224.487,230.78834a21.35807,21.35807,0,0,0,2.26751,4.2201c.837.82189,17.57008,4.27053,17.57008,4.27053" transform="translate(-8.25796 -1.89571)"/><path class="cls-2" d="M250.56844,238.81649s-6.25119-1.31213-6.2439-2.98616,4.79026-2.15233,4.79026-2.15233-4.18509-1.23549-3.7068-2.88966,5.16044-2.73032,5.16044-2.73032-3.2358-.71745-3.12195-2.75021,7.52744-3.46764,7.52744-3.46764-3.94595-.59787-2.63063-2.7502,5.62-3.33295,8.7289-2.922,3.46765-.081,3.46765-.081l4.09-5.68179c2.05465,0,3.60637,2.3588,3.69093,4.41172a5.06009,5.06009,0,0,1-3.18458,4.81074,5.554,5.554,0,0,1-4.68864,6.93865,6.263,6.263,0,0,1-5.2776,5.89525,2.47739,2.47739,0,0,1-.18779,2.35692,5.63807,5.63807,0,0,1-1.76951,1.69377A12.8921,12.8921,0,0,1,250.56844,238.81649Z" transform="translate(-8.25796 -1.89571)"/><path class="cls-11" d="M258.43616,191.89421a5.48987,5.48987,0,0,0-.84425,3.99243,3.91658,3.91658,0,0,0,2.632,2.984,4.57744,4.57744,0,0,0,3.01544-.32454,6.13658,6.13658,0,0,0,3.30652-3.29941,4.82717,4.82717,0,0,0-.528-4.56247,4.44277,4.44277,0,0,0-4.08835-1.61778C260.50482,189.21637,259.15946,190.75818,258.43616,191.89421Z" transform="translate(-8.25796 -1.89571)"/><path class="cls-12" d="M248.217,197.03374a1.06924,1.06924,0,0,0,1.07452.0966,1.58962,1.58962,0,0,0,.76314-.80475c.38795-.848-.11177-2.32092-1.23774-1.78668C248.02283,194.91566,247.39361,196.39185,248.217,197.03374Z" transform="translate(-8.25796 -1.89571)"/><path class="cls-12" d="M251.25512,190.76979a1.31988,1.31988,0,0,0-.088,1.14692,1.18859,1.18859,0,0,0,1.48249.53551,1.63468,1.63468,0,0,0,.95557-1.35,1.35494,1.35494,0,0,0-.32046-1.09711C252.54267,189.24972,251.61544,190.09412,251.25512,190.76979Z" transform="translate(-8.25796 -1.89571)"/><path class="cls-10" d="M101.003,178.5372c.21947.2994,38.20636,7.714,59.26422-11.16108" transform="translate(-8.25796 -1.89571)"/><path class="cls-2" d="M239.32934,206.69993a80.90829,80.90829,0,0,0,6.92479-11.67081,16.86391,16.86391,0,0,0-2.10919-4.48507,5.92314,5.92314,0,0,0-2.32191-2.235,2.63014,2.63014,0,0,0-3.01323.45216,3.71269,3.71269,0,0,0-.56533,2.85352c.4739,4.76191,2.49925,9.431,1.84722,14.17178" transform="translate(-8.25796 -1.89571)"/><path class="cls-13" d="M253.994,217.84a6.26227,6.26227,0,0,1,2.29647-1.0585c.10182-.01829.20093-.02271.30087-.03125l-2.37781-23.96968-3.45437,5.16228,2.69518,20.38877A2.67233,2.67233,0,0,1,253.994,217.84Z" transform="translate(-8.25796 -1.89571)"/><path class="cls-13" d="M246.30532,230.301a6.64861,6.64861,0,0,1,1.59125-1.01c.24188-.12042.48424-.24048.71727-.3775.10383-.061.20329-.13466.30724-.19554.0149-.01387.02144-.02108.04131-.03889a2.68463,2.68463,0,0,1,.689-.442c-2.58432-.34128-2.57456-4.35281.01709-4.68022l-2.35178-20.45243-4.00777,6.03438,2.77664,21.4011C246.15861,230.46015,246.22348,230.3762,246.30532,230.301Z" transform="translate(-8.25796 -1.89571)"/><path class="cls-2" d="M236.7789,237.42113a44.14022,44.14022,0,0,1-4.73226-.58334,19.08353,19.08353,0,0,1-2.75405-1.06091,2.3641,2.3641,0,0,1-2.33354-1.11392l-.25012-.41694a2.20474,2.20474,0,0,1-.14156-.28743,3.38414,3.38414,0,0,1-1.25167-2.16441l-18.49143,13.375-12.25546-14.38086s-7.1715,1.34246-10.041,3.44321c-2.57839,1.88759-6.16341,6.69417-6.86421,7.64993l-.07893.10806,22.90477,27.83316,3.55758,1.80036,4.36438-.1326,9.08937-5.7538,11.25754-10.34025,14.5506-16.329-.03253-.03664C241.10894,238.557,239.0031,237.72492,236.7789,237.42113Z" transform="translate(-8.25796 -1.89571)"/></g><g id="Layer_5" data-name="Layer 5"><path class="cls-14" d="M151.197,173.70816c14.39478-7.53844,24.39793-22.471,24.39793-22.471s9.5152-4.63561,10.97907-10.152-2.43979-12.05009-2.43979-12.05009c2.92775-10.73509,2.43979-28.78956,2.43979-28.78956,4.87959-13.17488-.488-32.93721-1.46387-36.10894s0-7.56336-3.65969-12.9309-12.199-13.66284-13.90682-14.88274-5.12357-9.27121-9.02724-10.97907-9.02723-5.36754-17.81049-9.02723S111.18436,11.925,101.003,14.12077,52.14136,28.02759,39.9424,59.7449s0,57.09116,0,57.09116c-7.80734,19.51835,11.88026,23.178,11.88026,23.178l2.10322,4.55383L63.46743,181.333s-7.57184,7.53986-11.64477,16.65761-4.09043,10.72466-4.09043,10.72466-3.88616,3.02869-4.6181,4.98053-3.41571,16.59059-4.63561,23.178S32.379,263.22365,29.93925,270.787a42.42771,42.42771,0,0,0-1.543,15.61467s12.3689,1.46388,23.05859,0l.81525-13.21689,2.38334-6.72209s5.7453,3.34839,8.814,1.88451,3.441-3.65969,3.441-3.65969,2.06754-10.24713,4.26335-15.85865l-1.46388,36.84088s16.10264,1.78918,47.332,1.38254S162.908,282.742,162.908,282.742l-5.36754-56.35922s16.83457,21.95814,19.51834,24.154,8.05132.97592,8.05132.97592,12.9309,17.07855,18.05447,19.76233,13.90682-4.87959,18.29845-9.02724,22.20211-22.934,22.20211-22.934l4.63561-.244s10.97907-.488,11.22305-6.58744c0,0,5.12356-1.70786,4.6356-5.85551a6.41842,6.41842,0,0,0,4.87959-6.58744s2.92775-1.95183,2.92775-5.12356-3.17173-4.39163-3.17173-4.39163,11.955-17.32253,11.955-18.29845-3.41571-4.33632-3.41571-4.33632-19.03039-6.95781-20.73824-6.5563-10.21238,14.061-10.21238,14.061-1.74261-7.20544-6.13424-7.50473-2.19581,5.31224-1.46387,7.508,1.21989,9.80335,1.21989,9.80335l-15.37069,24.10977-.244,2.4398-17.56651,13.41886-10.49111-12.68692v-2.19582Z" transform="translate(-8.25796 -1.89571)"/><path class="cls-10" d="M38.61929,121.01894s.5823-6.48645,10.19126-9.7535c0,0-1.53744-38.628,21.90842-56.11631S119.14812,37.08429,142.20962,43.234,176.994,67.833,183.14378,82.43857,185.12567,124.44,185.12567,124.44" transform="translate(-8.25796 -1.89571)"/><path class="cls-10" d="M171.05754,157.08714s13.0878-14.65194,15.22772-44.65376" transform="translate(-8.25796 -1.89571)"/><path class="cls-10" d="M128.75708,114.91684s4.99665,6.36239,4.80447,9.52311-2.30615,4.89033-6.14973,4.31379-8.07152-6.86351-8.07152-6.86351" transform="translate(-8.25796 -1.89571)"/><path class="cls-10" d="M152.58729,63.02847s13.45254.411,22.67714,4.6256" transform="translate(-8.25796 -1.89571)"/><path class="cls-10" d="M83.6452,58.41617s20.32076-3.84358,27.23921,0" transform="translate(-8.25796 -1.89571)"/><path class="cls-10" d="M52.65413,111.6498s-5.68864-.48023-8.46815,1.80581" transform="translate(-8.25796 -1.89571)"/><path class="cls-10" d="M76.61172,106.38594c-6.66455-8.71213-6.03051-20.8501.65082-29.54938,3.89257-5.06824,10.29807-9.85179,20.73011-10.541,0,0,13.85266-1.52322,21.34765,15.7658s-6.83959,33.0477-22.34944,33.62424A23.96732,23.96732,0,0,1,76.61172,106.38594Z" transform="translate(-8.25796 -1.89571)"/><path class="cls-15" d="M105.56381,108.30425l.012-1.2406-1.2563.957c-.16863-.0542-.33034-.41866-.27721-.14069a.99515.99515,0,0,0,.14769.28187,1.37007,1.37007,0,0,0,.71055.578c.64981.22744,1.39895-.20485,2-.42526l-.96561-1.65879a2.8782,2.8782,0,0,1-1.06923.34479,4.5114,4.5114,0,0,0-1.20118.456,3.318,3.318,0,0,0-1.47633,2.01474.99987.99987,0,0,0,1.65879.96562l1.4847-1.601H103.928q-.08114-.42061-.1116-.13271l-.04643.18135a2.79436,2.79436,0,0,0-.07224.63326,1.48768,1.48768,0,0,0,.6251,1.16938,1.78111,1.78111,0,0,0,2.31947-.49349,1.03247,1.03247,0,0,0,.15518-1.2027,1.83033,1.83033,0,0,0-1.23935-.9061,7.17792,7.17792,0,0,1-.83757-.31065q-.20694-.10152-.406-.21786-.38209-.31244-.0701.18579c-.061-1.27164-2.04629-1.279-1.98493,0a1.87038,1.87038,0,0,0,1.15369,1.58446,7.76818,7.76818,0,0,0,.96327.44932c.14306.0561.28719.10892.43328.15663q.15136.0453.30258.09112.17953.06195-.02884-.03087l.15518-1.2027q-.37161.226.14614.38979.32607.47314.34554.05094a1.83531,1.83531,0,0,0,.094-.637,1.58269,1.58269,0,0,0-.49284-1.1615,1.00441,1.00441,0,0,0-1.40355,0l-1.48471,1.601,1.65879.96562a1.504,1.504,0,0,1,1.29116-1.08438,4.80463,4.80463,0,0,0,1.94511-.85527c.77408-.61033-.06379-1.98953-.96561-1.65879a9.24119,9.24119,0,0,1-1.36681.46163h.52768c.19772.06818.38368.44359.25021.07536a1.218,1.218,0,0,0-.15414-.26994,1.4398,1.4398,0,0,0-.78258-.561,1.00154,1.00154,0,0,0-1.2563.957l-.012,1.2406a.99306.99306,0,0,0,1.98493,0Z" transform="translate(-8.25796 -1.89571)"/><path class="cls-10" d="M136.09125,95.332s1.46165-14.43385,14.70791-18.91018,24.20868-.27406,29.32448,12.15c5.00015,12.14323-1.17026,27.25364-13.73459,32.11015a11.92847,11.92847,0,0,1-1.7931.53913C151.76491,123.97649,134.75288,114.15837,136.09125,95.332Z" transform="translate(-8.25796 -1.89571)"/><path class="cls-15" d="M166.98116,112.68921l.00037,2.90228a.99306.99306,0,0,0,1.98493,0,1.81637,1.81637,0,0,0-.47249-1.22729,3.74817,3.74817,0,0,0-.33031-.32644,2.42068,2.42068,0,0,1-.2241-.20763q-.1051-.24273-.00726.28752l-.35605.356a2.21216,2.21216,0,0,1,.87717-.17431c.38027-.04928.76216-.08461,1.14431-.11538l-.50092-1.84943a2.36436,2.36436,0,0,1-1.941.39178.99765.99765,0,0,0-.76475,1.814,9.46109,9.46109,0,0,0,2.82382,1.474c1.21526.403,1.73631-1.51325.52767-1.914a7.91508,7.91508,0,0,1-2.34966-1.27393l-.76475,1.814a4.33854,4.33854,0,0,0,3.47055-.59188c.74492-.504.557-1.93463-.50092-1.84943-.61.04913-1.21688.11993-1.82268.2065a1.98553,1.98553,0,0,0-1.59758.767,1.58562,1.58562,0,0,0,.02056,1.60291,2.53736,2.53736,0,0,0,.44712.56593c.08812.08634.19118.1797.28755.25809.119.0968.04858.11.04883-.008h1.98493l-.00037-2.90228a.99306.99306,0,0,0-1.98493,0Z" transform="translate(-8.25796 -1.89571)"/><path class="cls-10" d="M83.6452,149.41419s6.67794-12.79036,23.487-13.52119,29.41583,2.46654,33.43539,11.51054-1.00489,22.67814-11.14513,25.31616a52.68226,52.68226,0,0,1-30.506-.98627" transform="translate(-8.25796 -1.89571)"/><path class="cls-10" d="M101.26588,171.69715a7.36972,7.36972,0,0,1,2.6834-2.9573,4.81961,4.81961,0,0,1,1.11312-.62871,4.07077,4.07077,0,0,1,2.66369.1114,5.739,5.739,0,0,1,3.88656,4.02577,9.04638,9.04638,0,0,1,2.521-2.09343,4.13742,4.13742,0,0,1,1.68708-.701,3.60849,3.60849,0,0,1,2.90624,1.15587,10.6775,10.6775,0,0,1,1.78019,2.69086c.13711-1.105,1.37121-1.93178,2.32936-2.499a5.22967,5.22967,0,0,1,1.55542-.67631,3.92654,3.92654,0,0,1,2.75417.54856,8.71716,8.71716,0,0,1,2.12838,1.91085" transform="translate(-8.25796 -1.89571)"/><path class="cls-10" d="M104.96106,136.34831a6.016,6.016,0,0,0,2.23387,4.15411,4.03711,4.03711,0,0,0,4.54216.23741c1.34019-.91814,1.82848-2.63394,2.223-4.20983a6.96592,6.96592,0,0,0,3.74365,4.86574,3.24378,3.24378,0,0,0,1.56785.37209,3.65752,3.65752,0,0,0,.98682-.23734c1.9071-.6793,3.77443-1.98049,4.32327-3.92915a8.47631,8.47631,0,0,0,1.90212,4.17923,3.64676,3.64676,0,0,0,4.03188.94621c1.18925-.57441,1.81781-1.88793,2.8267-2.74024a5.349,5.349,0,0,0,1.34331,4.70144,4.86342,4.86342,0,0,0,4.52365,1.07787" transform="translate(-8.25796 -1.89571)"/><path class="cls-10" d="M98.7304,163.11446a14.80527,14.80527,0,0,1,6.172-1.85767,12.56014,12.56014,0,0,1,7.19484,2.2079,3.675,3.675,0,0,1,1.17641,1.46276,1.84358,1.84358,0,0,1-.19478,1.80167,2.92344,2.92344,0,0,1-1.87153.80976c-1.29973.2205-3.7054.05666-5.00513.27717" transform="translate(-8.25796 -1.89571)"/><path class="cls-10" d="M45.634,210.53484s5.71462-3.66489,8.29185-4.49586c3.83637-1.237,8.67668-1.90306,10.57974,0s2.69105,4.33474,2.40278,4.96909-1.23954,2.326-1.23954,2.326a5.16169,5.16169,0,0,1,2.3257,2.74887,3.57714,3.57714,0,0,1-2.17988,4.229s2.31578,1.163,2.30069,3.38322a6.42179,6.42179,0,0,1-1.207,3.70039,9.39262,9.39262,0,0,1,.55753,3.80612c-.21145,1.79733-4.65192,5.60345-4.65192,5.60345l-.31717-2.74886a2.62949,2.62949,0,0,0-2.64314-1.48016,13.52421,13.52421,0,0,0-4.65192,1.163s-2.00879,11.6298-1.79734,12.36988a23.16869,23.16869,0,0,0,2.53478,3.48894s-.6461,3.59467-2.01334,4.75765a25.02914,25.02914,0,0,1,4.636,2.53741S52.569,269.5958,53.04059,270.4117" transform="translate(-8.25796 -1.89571)"/><path class="cls-10" d="M55.401,251.67294a10.30713,10.30713,0,0,1-3.47672,3.84556" transform="translate(-8.25796 -1.89571)"/><line class="cls-10" x1="43.66633" y1="275.19078" x2="44.62781" y2="252.95498"/><path class="cls-10" d="M56.365,255.5185s10.51724,5.88717,9.91043,10.45009" transform="translate(-8.25796 -1.89571)"/><path class="cls-15" d="M68.4913,217.71387a.7682.7682,0,0,1,.95854.03125c.13031.12332.08732.09411.10959.11654l.02906.04242a1.06588,1.06588,0,0,1,.09518.18312l.041.12435.04655.17979.06018.29375.096.55476.16046,1.08531.27925,2.15731c.17324,1.43684.34034,2.87236.48428,4.31q.42105,4.31351.74834,8.6347.31009,4.32364.47895,8.66354c.05445,1.44759.09412,2.89731.105,4.35308a13.8553,13.8553,0,0,1-.42643,4.38232.76441.76441,0,0,1-1.48118-.099l-.00293-.01767a24.24259,24.24259,0,0,1-.18485-4.25784c-.00053-1.42618-.02945-2.85791-.07322-4.29055-.08633-2.86586-.23945-5.73546-.40464-8.60478q-.23375-4.30524-.56073-8.60692l-.327-4.29754-.19452-2.13948-.11549-1.05843-.06872-.51329-.03888-.23741-.01715-.08272.00131-.00475a.484.484,0,0,0,.06488.12276l.02148.02733a.85349.85349,0,0,0,.09909.10492.72886.72886,0,0,0,.5.17895.7147.7147,0,0,0,.42615-.15739.74435.74435,0,0,1-.90958-1.17851Z" transform="translate(-8.25796 -1.89571)"/><path class="cls-10" d="M62.39111,209.84509s-3.74938,1.26871-4.99359,3.17177" transform="translate(-8.25796 -1.89571)"/><path class="cls-10" d="M49.4926,214.17984s6.86766-2.22024,16.8081,0" transform="translate(-8.25796 -1.89571)"/><path class="cls-10" d="M49.4926,221.26344a24.90479,24.90479,0,0,1,7.90492-1.90306c4.14779-.21145,9.19865.14979,9.95825,2.24227" transform="translate(-8.25796 -1.89571)"/><path class="cls-10" d="M51.45482,227.607a27.75652,27.75652,0,0,1,8.43949-1.58588c3.76551.10572,6.717,1.00784,7.46146,3.04133" transform="translate(-8.25796 -1.89571)"/><line class="cls-10" x1="43.5647" y1="231.63188" x2="46.94382" y2="231.84333"/><line class="cls-10" x1="56.03621" y1="230.4689" x2="53.26636" y2="231.09363"/><path class="cls-10" d="M54.97041,248.40985a5.86507,5.86507,0,0,0,3.45378,1.81828c2.05344.20661,4.23072-3.09917,4.485-3.85675s-.30253-11.36294-.30253-11.36294" transform="translate(-8.25796 -1.89571)"/><path class="cls-10" d="M55.56828,244.87327a19.67982,19.67982,0,0,0,1.92344,2.02126,1.62837,1.62837,0,0,0,1.26494.577,1.38276,1.38276,0,0,0,.73466-.34741l1.04447-.96995" transform="translate(-8.25796 -1.89571)"/><path class="cls-10" d="M152.25984,197.32749s5.30817,29.34492,6.10208,37.68095" transform="translate(-8.25796 -1.89571)"/><path class="cls-10" d="M175.60506,249.09855c-.37785-2.2915.58823-4.582,1.69913-6.62156a27.3821,27.3821,0,0,1,2.81239-4.27921,20.55128,20.55128,0,0,1,16.38895-7.39658" transform="translate(-8.25796 -1.89571)"/><line class="cls-10" x1="170.06902" y1="240.15246" x2="182.47072" y2="256.70298"/><line class="cls-10" x1="195.78906" y1="245.93475" x2="202.65197" y2="240.15246"/><path class="cls-10" d="M224.487,230.78834a21.35807,21.35807,0,0,0,2.26751,4.2201c.837.82189,17.57008,4.27053,17.57008,4.27053" transform="translate(-8.25796 -1.89571)"/><path class="cls-10" d="M250.56844,238.81649s-6.25119-1.31213-6.2439-2.98616,4.79026-2.15233,4.79026-2.15233-4.18509-1.23549-3.7068-2.88966,5.16044-2.73032,5.16044-2.73032-3.2358-.71745-3.12195-2.75021,7.52744-3.46764,7.52744-3.46764-3.94595-.59787-2.63063-2.7502,5.62-3.33295,8.7289-2.922,3.46765-.081,3.46765-.081l8.85174-12.29685" transform="translate(-8.25796 -1.89571)"/><path class="cls-10" d="M226.75446,235.00844c-.59787-.94147,32.6437-50.23622,32.6437-50.23622S279.28,190.59149,280.75,192.22567" transform="translate(-8.25796 -1.89571)"/><line class="cls-10" x1="248.33807" y1="179.43734" x2="251.14021" y2="182.87651"/><path class="cls-10" d="M249.3903,190.70678c0,1.17654-11.18674,18.40474-13.78119,21.38984" transform="translate(-8.25796 -1.89571)"/><path class="cls-10" d="M268.24664,213.82871a6.9952,6.9952,0,0,1-5.49473,2.49283" transform="translate(-8.25796 -1.89571)"/><path class="cls-10" d="M253.74823,221.72306s13.04729,1.71119,17.18071-3.62966" transform="translate(-8.25796 -1.89571)"/><path class="cls-10" d="M249.65137,228.2371s14.40284.01467,18.426-4.45351" transform="translate(-8.25796 -1.89571)"/><path class="cls-15" d="M247.35117,232.59129a7.24366,7.24366,0,0,1,1.89285-.11641q.95068-.00123,1.90115-.03736c1.26683-.04471,2.52959-.145,3.77712-.3068a23.03214,23.03214,0,0,0,3.66334-.73138,10.10235,10.10235,0,0,0,3.25113-1.4433l.01514-.01125a.74424.74424,0,0,1,.90814,1.179,11.38857,11.38857,0,0,1-3.70471,1.844,24.65733,24.65733,0,0,1-3.90428.83739c-1.30759.1876-2.61757.309-3.92755.37335q-.98262.05051-1.966.06544a5.8894,5.8894,0,0,1-1.97528-.16557.77487.77487,0,0,1,.0353-1.47765Z" transform="translate(-8.25796 -1.89571)"/><line class="cls-10" x1="185.71887" y1="228.98083" x2="190.47007" y2="233.48269"/><path class="cls-10" d="M258.43616,191.89421a5.48987,5.48987,0,0,0-.84425,3.99243,3.91658,3.91658,0,0,0,2.632,2.984,4.57744,4.57744,0,0,0,3.01544-.32454,6.13658,6.13658,0,0,0,3.30652-3.29941,4.82717,4.82717,0,0,0-.528-4.56247,4.44277,4.44277,0,0,0-4.08835-1.61778C260.50482,189.21637,259.15946,190.75818,258.43616,191.89421Z" transform="translate(-8.25796 -1.89571)"/><path class="cls-15" d="M259.79547,195.36881a1.68175,1.68175,0,0,0,.71245,1.41007,1.80759,1.80759,0,0,0,1.48636-.07528,5.14583,5.14583,0,0,0,1.94379-1.2593,3.14626,3.14626,0,0,0,.873-2.10813,2.2291,2.2291,0,0,0-3.08463-2.05935C260.38707,191.9073,259.69393,194.01647,259.79547,195.36881Z" transform="translate(-8.25796 -1.89571)"/><path class="cls-16" d="M248.217,197.03374a1.06924,1.06924,0,0,0,1.07452.0966,1.58962,1.58962,0,0,0,.76314-.80475c.38795-.848-.11177-2.32092-1.23774-1.78668C248.02283,194.91566,247.39361,196.39185,248.217,197.03374Z" transform="translate(-8.25796 -1.89571)"/><path class="cls-16" d="M251.25512,190.76979a1.31988,1.31988,0,0,0-.088,1.14692,1.18859,1.18859,0,0,0,1.48249.53551,1.63468,1.63468,0,0,0,.95557-1.35,1.35494,1.35494,0,0,0-.32046-1.09711C252.54267,189.24972,251.61544,190.09412,251.25512,190.76979Z" transform="translate(-8.25796 -1.89571)"/><path class="cls-15" d="M254.38485,186.70541a2.03031,2.03031,0,0,0-.78433.907.94741.94741,0,0,0,.28045,1.09506.85219.85219,0,0,0,.90223-.00643,1.21,1.21,0,0,0,.51812-.77046,1.23452,1.23452,0,0,0-.07865-.815.88942.88942,0,0,0-.63682-.49" transform="translate(-8.25796 -1.89571)"/><path class="cls-15" d="M250.45237,192.75628a.74093.74093,0,0,0-.36975.96991.76913.76913,0,0,0,.99015.34095.79964.79964,0,0,0,.37425-.98756.83277.83277,0,0,0-.95585-.4689" transform="translate(-8.25796 -1.89571)"/><path class="cls-10" d="M101.003,178.5372c.21947.2994,38.20636,7.714,59.26422-11.16108" transform="translate(-8.25796 -1.89571)"/></g><g id="Layer_4" data-name="Layer 4"><path class="cls-17" d="M97.99265,157.08714s3.69452,2.44042,6.02067,24.71673c.4168,3.99143-3.11246,7.57178-5.24259,10.97294a16.12831,16.12831,0,0,1-3.402,4.14227,12.39335,12.39335,0,0,1-7.10668,2.46517,31.20877,31.20877,0,0,1-7.58776-.7577,13.35481,13.35481,0,0,1-5.42893-1.94315A12.72136,12.72136,0,0,1,71.68887,191.91a66.4171,66.4171,0,0,1-3.14343-7.28671c-.94524-2.60989-1.83679-5.44193-4.01648-7.16063a11.01891,11.01891,0,0,0-3.413-1.67827,12.07566,12.07566,0,0,0-3.33659-.69742c-1.9567-.07035-4.41469.0952-5.95666,1.30183a81.46841,81.46841,0,0,1-10.72494,7.46544c-3.82,2.10327-8.47536,5.08765-12.59712,3.66385a16.3612,16.3612,0,0,1-9.47071-9.01439c-.22564-3.7351.92238-7.41982,2.37037-10.8702a46.33321,46.33321,0,0,1,8.61214-13.76628,33.65151,33.65151,0,0,1,14.44217-8.694c3.10586-.92089,6.35072.37552,9.58943.44743,13.89426.30848,27.8752,3.47832,39.93225,10.39014A7.90457,7.90457,0,0,0,97.99265,157.08714Z" transform="translate(-8.25796 -1.89571)"/><path class="cls-18" d="M75.14357,174.91434a7.6861,7.6861,0,0,0,1.51857,1.84773,2.75816,2.75816,0,0,0,1.21229.75388,1.97776,1.97776,0,0,0,1.79542-.63392,4.31874,4.31874,0,0,0,.92312-1.74326,8.08042,8.08042,0,0,0,.35274-3.545c-.32252-2.22493-2.49175-5.24489-4.75986-3.17908A5.492,5.492,0,0,0,75.14357,174.91434Z" transform="translate(-8.25796 -1.89571)"/><path class="cls-18" d="M83.79291,173.5024c.07711.3317.22841.71186.56041.78768a.78568.78568,0,0,0,.66617-.243c.80953-.728,1.38014-4.03239.232-4.69483C83.24492,168.19453,83.61406,172.733,83.79291,173.5024Z" transform="translate(-8.25796 -1.89571)"/><path class="cls-19" d="M46.33769,153.47945s7.61958-3.25347,13.84584.73134,7.8866,9.54693,8.30169,14.19587a29.9835,29.9835,0,0,0,2.24145,9.962c1.24525,3.07163,2.57352,5.3961,3.15464,8.21867a20.92682,20.92682,0,0,0,3.15464,6.80738c.66413.91319,5.69424,5.38115,10.44316,4.47544a4.7539,4.7539,0,0,1-1.27175,4.66262c-1.09624.93366-3.063.73117-4.42453.553a13.19012,13.19012,0,0,1-8.34926-4.33269c-1.74111-2.1091-2.63929-4.77628-4.07327-7.105a42.56829,42.56829,0,0,1-2.706-4.31559,21.0373,21.0373,0,0,1-1.38395-6.71162c-.51-4.911-1.37383-9.93692-3.97246-14.13514s-7.2958-7.4198-12.21286-6.97211c-2.96128.26962-5.64265,1.78977-8.21365,3.2837-6.00592,3.48984-12.306,7.36206-15.375,13.59355a15.23015,15.23015,0,0,0-.94589,8.28755,21.50411,21.50411,0,0,1-3.64624-2.94134,2.17152,2.17152,0,0,1-.68392-1.05366,2.20824,2.20824,0,0,1,.112-.99364,44.73266,44.73266,0,0,1,7.27725-14.43486,32.31909,32.31909,0,0,1,3.28492-3.89012C35.10394,157.21107,40.6591,155.13069,46.33769,153.47945Z" transform="translate(-8.25796 -1.89571)"/><path class="cls-18" d="M103.66355,180.45182c-.85464-.03034-1.47352-.83973-1.77736-1.63911a9.3979,9.3979,0,0,0-.94677-2.37178,19.18454,19.18454,0,0,0-1.60955-1.5034c-1.17869-1.25656-1.27886-3.17153-1.09341-4.88439s.5859-3.46279.166-5.1337a18.14633,18.14633,0,0,1-.82426-2.83042c-.11611-1.40312.64618-2.76151.56918-4.16732a5.89607,5.89607,0,0,0-2.44162-3.93827,19.76412,19.76412,0,0,1-3.55193-3.16106c-.91179-1.24076-1.39083-2.85431-2.6491-3.74179-1.58542-1.11822-3.80319-.66915-5.5946-1.414a16.64138,16.64138,0,0,1-2.61893-1.69685c-2.4066-1.58552-5.37885-1.986-8.2382-2.34613a44.50635,44.50635,0,0,0-7.45787-.5169,44.494,44.494,0,0,0-6.22325.85988l-10.82695,2.01975a13.5936,13.5936,0,0,0-4.38642,1.34625,4.383,4.383,0,0,0-2.17063,3.71163c-1.522,2.35255-4.51255,3.1583-6.92342,4.58612a13.61455,13.61455,0,0,0-5.72819,16.70749c2.01756-1.15027,3.46944-2.36232,5.487-3.51259a21.97185,21.97185,0,0,0,5.63594-4.0597c2.70009-2.99207,3.64443-7.33713,6.62367-10.05137a9.4775,9.4775,0,0,1,8.58742-2.13277c1.73542.44686,3.48915,1.40138,5.21643.924a8.714,8.714,0,0,0,2.11078-1.10319,10.38446,10.38446,0,0,1,6.77059-1.5913,6.84489,6.84489,0,0,1,5.417,4.05811c.70982,1.84448.42194,3.90922.728,5.86172s1.65131,4.07765,3.627,4.02695a12.87369,12.87369,0,0,0,1.984-.41882,5.27924,5.27924,0,0,1,5.00621,2.13579,7.88151,7.88151,0,0,1,1.35844,5.43755,11.2208,11.2208,0,0,0-.14871,3.01153c.31853,1.75488,1.88489,3.13693,2.00994,4.9161.101,1.43629-.72854,3.06247.13485,4.21471.61305.81814,1.81283.94973,2.54925,1.65886.90246.869.85533,2.30193.74355,3.54978-.23129,2.58206-.6169,5.46328-2.65068,7.07084-1.061.83861-2.57176,1.35045-2.96233,2.6452-.27833.92265.14455,1.90344.13439,2.8671a3.30378,3.30378,0,0,1-2.992,3.14749,12.93472,12.93472,0,0,0,9.81233-3.34571,38.76558,38.76558,0,0,0,6.71451-8.32566,19.29708,19.29708,0,0,0,2.2495-4.06211A10.41762,10.41762,0,0,0,103.66355,180.45182Z" transform="translate(-8.25796 -1.89571)"/><path class="cls-20" d="M97.99265,157.08714s3.69452,2.44042,6.02067,24.71673" transform="translate(-8.25796 -1.89571)"/><path class="cls-20" d="M46.33769,153.47945s7.61958-3.25347,13.84584.73134,7.8866,9.54693,8.30169,14.19587a29.9835,29.9835,0,0,0,2.24145,9.962c1.24525,3.07163,2.57352,5.3961,3.15464,8.21867a20.92682,20.92682,0,0,0,3.15464,6.80738c.66413.91319,5.69424,5.38115,10.44316,4.47544" transform="translate(-8.25796 -1.89571)"/><path class="cls-21" d="M75.14357,174.91434a7.6861,7.6861,0,0,0,1.51857,1.84773,2.75816,2.75816,0,0,0,1.21229.75388,1.97776,1.97776,0,0,0,1.79542-.63392,4.31874,4.31874,0,0,0,.92312-1.74326,8.08042,8.08042,0,0,0,.35274-3.545c-.32252-2.22493-2.49175-5.24489-4.75986-3.17908A5.492,5.492,0,0,0,75.14357,174.91434Z" transform="translate(-8.25796 -1.89571)"/><path class="cls-21" d="M83.79291,173.5024c.07711.3317.22841.71186.56041.78768a.78568.78568,0,0,0,.66617-.243c.80953-.728,1.38014-4.03239.232-4.69483C83.24492,168.19453,83.61406,172.733,83.79291,173.5024Z" transform="translate(-8.25796 -1.89571)"/><path class="cls-20" d="M44.45457,145.1732a33.65151,33.65151,0,0,0-14.44217,8.694,46.33321,46.33321,0,0,0-8.61214,13.76628c-1.448,3.45038-2.596,7.1351-2.37037,10.8702a16.3612,16.3612,0,0,0,9.47071,9.01439c4.12176,1.4238,8.77712-1.56058,12.59712-3.66385a81.46841,81.46841,0,0,0,10.72494-7.46544" transform="translate(-8.25796 -1.89571)"/><path class="cls-9" d="M62.50878,169.09005c-1.90018-4.47724-4.9456-6.22829-8.3687-8.69836a10.02781,10.02781,0,0,0-.37872,2.01558q-.90536,4.99455-1.81114,9.98891a18.84336,18.84336,0,0,0-.45177,5.091,6.3523,6.3523,0,0,0,2.19737,4.47476,27.13561,27.13561,0,0,1,2.54367,1.60233,8.43187,8.43187,0,0,1,2.18683,5.46346l-.68087,16.173,4.31405-.57952s.35939-14.61517.71878-17.25279c.18954-1.391.51114-2.65271,1.868-3.26156.45589-.20456.83957-.15779,1.16838-.33643C65.19663,178.786,64.43174,173.62077,62.50878,169.09005Z" transform="translate(-8.25796 -1.89571)"/><path class="cls-10" d="M53.70822,160.52007c-.76014,4.19246-.99784,7.68367-1.758,11.87613a18.84331,18.84331,0,0,0-.4518,5.091,6.35242,6.35242,0,0,0,2.19738,4.47472,27.15032,27.15032,0,0,1,2.54369,1.60235,8.43186,8.43186,0,0,1,2.18683,5.46344L57.76225,204.802l4.29724-.18075s.35944-14.6175.71889-17.25345.51655-3.45024,2.89048-3.45024" transform="translate(-8.25796 -1.89571)"/><path class="cls-10" d="M57.92832,163.46469l-1.0616,10.71939" transform="translate(-8.25796 -1.89571)"/><path class="cls-10" d="M61.29787,166.48571a75.30862,75.30862,0,0,0-.67753,7.70243" transform="translate(-8.25796 -1.89571)"/><path class="cls-15" d="M64.01154,171.471a4.2965,4.2965,0,0,1,.04071,1.73333,4.7334,4.7334,0,0,1-.58482,1.70115,4.733,4.733,0,0,1-.40714-1.75218,4.29609,4.29609,0,0,1,.21839-1.72.38541.38541,0,0,1,.73286.0377Z" transform="translate(-8.25796 -1.89571)"/><path class="cls-20" d="M25.49639,176.39085c3.069-6.23149,9.369-10.10371,15.375-13.59355,2.571-1.49393,5.25237-3.01408,8.21365-3.2837,4.91706-.44769,9.61423,2.77389,12.21286,6.97211s3.46248,9.22414,3.97246,14.13514a21.0373,21.0373,0,0,0,1.38395,6.71162,42.56829,42.56829,0,0,0,2.706,4.31559c1.434,2.32876,2.33216,4.99594,4.07323,7.105,2.81968,3.41564,8.74282,5.38,12.94852,3.99095" transform="translate(-8.25796 -1.89571)"/><path class="cls-21" d="M103.66355,180.45182c-.85464-.03034-1.47352-.83973-1.77736-1.63911a9.3979,9.3979,0,0,0-.94677-2.37178,19.18454,19.18454,0,0,0-1.60955-1.5034c-1.17869-1.25656-1.27886-3.17153-1.09341-4.88439s.5859-3.46279.166-5.1337a18.14633,18.14633,0,0,1-.82426-2.83042c-.11611-1.40312.64618-2.76151.56918-4.16732a5.89607,5.89607,0,0,0-2.44162-3.93827,19.76412,19.76412,0,0,1-3.55193-3.16106c-.91179-1.24076-1.39083-2.85431-2.6491-3.74179-1.58542-1.11822-3.80319-.66915-5.5946-1.414a16.64138,16.64138,0,0,1-2.61893-1.69685c-2.4066-1.58552-5.37885-1.986-8.2382-2.34613a44.50635,44.50635,0,0,0-7.45787-.5169,44.494,44.494,0,0,0-6.22325.85988l-10.82695,2.01975a13.5936,13.5936,0,0,0-4.38642,1.34625,4.383,4.383,0,0,0-2.17063,3.71163c-1.522,2.35255-4.51255,3.1583-6.92342,4.58612a13.61455,13.61455,0,0,0-5.72819,16.70749,28.33608,28.33608,0,0,0,4.61271-3.18543c2.63346-2.12043,4.95208-2.66022,6.51023-4.38686,2.70009-2.99207,3.64443-7.33713,6.62367-10.05137a9.4775,9.4775,0,0,1,8.58742-2.13277c1.73542.44686,3.48915,1.40138,5.21643.924a8.714,8.714,0,0,0,2.11078-1.10319,10.38446,10.38446,0,0,1,6.77059-1.5913,6.84489,6.84489,0,0,1,5.417,4.05811c.70982,1.84448.42194,3.90922.728,5.86172s1.65131,4.07765,3.627,4.02695a12.87369,12.87369,0,0,0,1.984-.41882,5.27924,5.27924,0,0,1,5.00621,2.13579,7.88151,7.88151,0,0,1,1.35844,5.43755,11.2208,11.2208,0,0,0-.14871,3.01153c.31853,1.75488,1.88489,3.13693,2.00994,4.9161.101,1.43629-.72854,3.06247.13485,4.21471.61305.81814,1.81283.94973,2.54925,1.65886.90246.869.85533,2.30193.74355,3.54978-.23129,2.58206-.6169,5.46328-2.65068,7.07084-1.061.83861-2.57176,1.35045-2.96233,2.6452-.27833.92265.14455,1.90344.13439,2.8671a3.30378,3.30378,0,0,1-2.992,3.14749,12.93472,12.93472,0,0,0,9.81233-3.34571,38.76558,38.76558,0,0,0,6.71451-8.32566,19.29708,19.29708,0,0,0,2.2495-4.06211A10.41762,10.41762,0,0,0,103.66355,180.45182Z" transform="translate(-8.25796 -1.89571)"/><path class="cls-22" d="M80.95793,150.20769a14.30569,14.30569,0,0,0,3.03027,1.2026A12.5535,12.5535,0,0,1,90.59,158.24073a44.80319,44.80319,0,0,1,2.56267,9.38587c.07508.36115.30124.823.65816.72984a.65224.65224,0,0,0,.31933-.25482,5.81584,5.81584,0,0,0,.66681-6.006,15.483,15.483,0,0,0-1.54247-2.2995c-2.80084-3.84862-4.38445-8.68931-8.09307-11.67308-1.22617-.98651-3.56358-2.33474-5.17-1.42137C78.3225,147.65052,79.85857,149.47039,80.95793,150.20769Z" transform="translate(-8.25796 -1.89571)"/><path class="cls-22" d="M95.58106,176.86957a5.86008,5.86008,0,0,0,.64.89457l2.06706,2.53695c.08145.1.20019.21108.32058.16489a.28937.28937,0,0,0,.14049-.16744,3.15416,3.15416,0,0,0-.69353-3.01479,10.33641,10.33641,0,0,1-1.803-2.67713c-.29615-.892-.69246-1.332-1.09732-.30526A3.94554,3.94554,0,0,0,95.58106,176.86957Z" transform="translate(-8.25796 -1.89571)"/><path class="cls-22" d="M55.57755,145.5336c-.56064.02124-1.24753.07607-1.47984.58677-.29142.64066.441,1.27846,1.11052,1.49575,1.66752.54114,4.82414.08944,5.6822-1.73907C62.15839,143.17509,56.84605,145.48551,55.57755,145.5336Z" transform="translate(-8.25796 -1.89571)"/></g></svg>