<?xml version="1.0" encoding="utf-8"?>
<!-- Generator: Adobe Illustrator 23.0.3, SVG Export Plug-In . SVG Version: 6.00 Build 0)  -->
<svg version="1.1" xmlns="http://www.w3.org/2000/svg" xmlns:xlink="http://www.w3.org/1999/xlink" x="0px" y="0px"
	 viewBox="0 0 300 300" style="enable-background:new 0 0 300 300;" xml:space="preserve">
<style type="text/css">
	.st0{fill:#FFFFFF;}
	.st1{fill:#B4E6FC;}
	.st2{fill:#E5D9CB;}
	.st3{fill:none;stroke:#000000;stroke-width:2;stroke-linecap:round;stroke-linejoin:round;stroke-miterlimit:10;}
	.st4{fill:#A4E3B6;}
	.st5{fill:none;stroke:#000000;stroke-width:3;stroke-linecap:round;stroke-linejoin:round;stroke-miterlimit:10;}
</style>
<g id="Слой_7">
	<g>
		<g>
			<path class="st0" d="M187,18.5c0.2,0,0.5,0.1,0.7,0.2c0.5,0.3,0.8,0.8,0.8,1.4c-0.7,23.1-0.6,44.5,0.3,65.4
				c0.6,0.1,1.2,0.1,1.9,0.1c4.9,0,10.1-1.9,15.5-4.1l12.6-5.1c8.7-3.5,17.7-7.1,27.3-8.4c0.1,0,0.1,0,0.2,0c0.4,0,0.9,0.2,1.1,0.5
				c0.3,0.4,0.4,0.9,0.3,1.4c-7,23.1-17.3,44.7-30.5,64.2c5.7,3.2,12.1,5,18.4,6.8c7.1,2.1,14.5,4.2,20.9,8.2
				c0.5,0.3,0.7,0.8,0.7,1.3c0,0.5-0.3,1-0.8,1.3c-6.8,3.4-13.7,8.8-18.3,12.6l-16.7,13.7c4.7,6.2,12.4,9.7,21.2,13.1
				c0.5,0.2,0.9,0.7,0.9,1.2c0.1,0.6-0.2,1.1-0.7,1.4c-3.8,2.6-7.6,5.1-11.4,7.7c-3.3,2.3-6.7,4.5-10,6.8c3.7,5,6.5,10.5,9.4,15.9
				c1,1.8,1.9,3.7,2.9,5.5c0.3,0.5,0.2,1,0,1.5c-0.3,0.5-0.8,0.7-1.3,0.7c-5.8,0-11.9,0.9-16,1.7l-0.8,0.2c-1,0.2-2,0.4-3,0.5
				c-1.2,0.2-2.5,0.2-3.7,0.2c-0.1,0-0.2,0-0.3,0c0.8,3.5,1.4,7.1,2,10.6c0.4,2.6,0.9,5.3,1.4,7.9c0.1,0.4,0,0.9-0.3,1.3
				c-0.3,0.3-0.7,0.5-1.1,0.5c0,0,0,0,0,0c-5-0.1-9.9-1.9-13.9-5l-5.5,0.9c-0.7,1.6-2.3,5.3-5.5,9.3l-0.4,0.5
				c-4.4,5.6-16.1,20.6-51.3,20.6c-32.4,0-41.1-26.3-42.7-32.4c-5.1-0.1-8.8-1.5-11.1-4.2c-2.1-2.5-2.4-5.5-2.3-7.2
				c-2.3-0.6-4.5-1.2-6.8-1.8c-2.6-0.7-5.3-1.4-8-2.1c-0.5-0.1-1-0.6-1.1-1.1c-0.1-0.6,0.1-1.1,0.5-1.5c2-1.7,4.3-3.9,6.4-6.1
				c0.8-0.8,1.6-1.6,2.3-2.4c-5-10.8-1.5-17.4,2.4-24.3c-2.5-4.1-5.3-8.7-9.4-11.5c-1-0.7-2-1.2-3.2-1.8c-1.4-0.7-2.8-1.5-4.2-2.5
				c-1.8-1.3-3.2-2.9-4.6-4.4c-1.5-1.6-2.9-3.1-4.6-4.3c-0.5-0.3-0.7-0.9-0.6-1.4c0.1-0.6,0.4-1,1-1.2c7.9-3,16.1-7.7,25.2-14.3
				c-6-11.7-12.2-23.7-21.2-33.5c-0.4-0.4-0.7-0.8-1.1-1.2c-2.2-2.4-4.5-4.9-5.9-8c-0.2-0.5-0.1-1.2,0.3-1.6
				c0.3-0.3,0.7-0.5,1.1-0.5c0.2,0,0.3,0,0.5,0.1c3.3,1.1,6.7,1.4,10.1,1.4c5.1,0,10.3-0.9,15.1-1.7c3.1-0.5,6.2-1.1,9.3-1.6
				c2.7-0.5,5.4-1,8.1-1.4c0.1-1.7,0.4-3.4,0.7-5.1c0.2-1.2,0.4-2.4,0.6-3.6c0.2-1.6-1.2-11-2.1-17.3c-0.6-4.1-1.1-7.3-1.1-8.4
				c-0.7-10.7,0.1-15.8,1.1-21.7c0.7-4.6,1.5-9.3,1.7-17.4c0-0.6,0.3-1.1,0.9-1.3c0.2-0.1,0.4-0.1,0.6-0.1c0.3,0,0.7,0.1,0.9,0.3
				c9.8,7.8,18.8,16.9,27.4,25.8c4.8,4.9,9.7,10,14.8,14.7c3.6-10.8,10.4-21.3,20.3-31.2c9.4-9.4,20.3-17.1,30.9-24.5
				C186.4,18.6,186.7,18.5,187,18.5 M135.6,78.8c-0.4,0-0.7-0.1-1-0.4c-5.7-5.3-11.2-11-16.6-16.4c-7.9-8.1-16.1-16.4-24.8-23.7
				c-0.3,6.6-1,10.9-1.6,14.8c-0.9,5.7-1.7,10.7-1,21.1c0.1,1,0.5,4.3,1.1,8.2c1.3,9.1,2.3,16.1,2.1,18c-0.1,1.3-0.4,2.6-0.6,3.8
				c-0.4,2-0.7,3.9-0.6,5.8c0,0.8-0.5,1.4-1.3,1.5c-3.1,0.5-6.2,1.1-9.3,1.6c-3.1,0.6-6.3,1.1-9.3,1.6c-4.9,0.8-10.3,1.7-15.6,1.7
				c-2.5,0-5-0.2-7.5-0.7c1.1,1.5,2.3,2.8,3.6,4.2c0.4,0.4,0.8,0.8,1.1,1.2c9.5,10.4,16,23,22.2,35.2c0.3,0.7,0.1,1.5-0.4,1.9
				c-8.8,6.5-16.9,11.3-24.6,14.5c1.1,1,2.1,2,3,3.1c1.4,1.5,2.7,2.9,4.2,4c1.1,0.9,2.4,1.5,3.8,2.3c1.1,0.6,2.3,1.2,3.4,2
				c4.9,3.3,8,8.5,10.8,13.2c0.3,0.5,0.3,1,0,1.5l-0.2,0.3c-4.1,7.1-7.3,12.7-2.2,22.9c0.3,0.6,0.2,1.3-0.3,1.8c-1,0.9-2,2-3.1,3.1
				c-1.5,1.5-3,3-4.5,4.4c1.8,0.5,3.5,0.9,5.3,1.4c2.6,0.7,5.3,1.4,8,2.1c0.8,0.2,1.3,1,1.1,1.8c0,0-0.7,3.6,1.5,6.2
				c1.7,2.1,4.8,3.1,9.2,3.1c0.2,0,0.5,0,0.7,0c0,0,0,0,0,0c0.7,0,1.3,0.5,1.5,1.2c0.2,1.3,6.1,31.2,40,31.2
				c33.8,0,44.8-14.1,49-19.4l0.4-0.6c3.9-4.9,5.4-9.2,5.4-9.3c0.2-0.5,0.6-0.9,1.2-1l7-1.2c0.1,0,0.2,0,0.2,0c0.4,0,0.7,0.1,1,0.4
				c3,2.6,6.7,4.2,10.7,4.6c-0.4-2-0.7-4.1-1.1-6.1c-0.7-4.1-1.4-8.3-2.4-12.3c-0.1-0.5,0-1,0.3-1.3c0.3-0.3,0.7-0.5,1.2-0.5
				c0,0,0.1,0,0.1,0c0.7,0.1,1.4,0.1,2.1,0.1c1.1,0,2.2-0.1,3.3-0.2c0.9-0.1,1.9-0.3,2.9-0.5l0.8-0.2c3.6-0.7,8.8-1.4,14.1-1.6
				c-0.6-1.1-1.2-2.2-1.8-3.4c-3-5.7-6.1-11.6-10-16.7c-0.3-0.3-0.4-0.7-0.3-1.2c0.1-0.4,0.3-0.8,0.6-1c3.8-2.5,7.6-5.1,11.3-7.7
				c3-2,6-4.1,9-6.1c-7.4-3-15.8-6.9-20.7-14.3c-0.4-0.6-0.3-1.5,0.3-2l17.8-14.6c4.6-3.7,10.4-8.3,16.5-11.7
				c-5.5-3-11.8-4.8-17.9-6.6c-7-2-14.2-4.1-20.5-8c-0.4-0.2-0.6-0.6-0.7-1c-0.1-0.4,0-0.8,0.2-1.2c13-18.9,23.2-39.9,30.3-62.4
				c-8.4,1.5-16.4,4.7-24.3,7.8l-12.6,5.1c-5.7,2.3-11.2,4.3-16.6,4.3c-1.2,0-2.4-0.1-3.6-0.3c-0.7-0.1-1.2-0.7-1.2-1.4
				c-0.9-20.4-1.1-41.3-0.4-63.8c-9.7,6.9-19.6,14-28.1,22.5c-10.3,10.2-17.1,21.1-20.3,32.2c-0.1,0.5-0.5,0.9-1,1
				C135.9,78.7,135.8,78.8,135.6,78.8 M187,8.5c-2.4,0-4.7,0.7-6.6,2.1c-10.9,7.7-22.2,15.7-32.2,25.6c-6.8,6.8-12.3,13.8-16.5,21.1
				c-1.5-1.5-3-3-4.4-4.5c-8.9-9.1-18.1-18.5-28.4-26.6c-2-1.6-4.6-2.5-7.2-2.5c-1.7,0-3.4,0.4-4.9,1.1c-4,1.9-6.5,5.7-6.6,10.1
				c-0.2,7.4-0.8,11.6-1.6,16.1c-1,6.2-1.9,12.1-1.2,24c0.1,1.4,0.5,4,1.2,9.1c0.6,3.9,1.9,12.8,2,15.3c0,0.2-0.1,0.4-0.1,0.6
				c-0.3,0.1-0.6,0.1-1,0.2c-3.1,0.5-6.2,1.1-9.2,1.6c-4.5,0.8-9.2,1.5-13.5,1.5c-2.7,0-5-0.3-7-1c-1.1-0.4-2.3-0.6-3.5-0.6
				c-3.2,0-6.3,1.4-8.5,3.8c-3,3.4-3.8,8.2-2,12.3c2.1,4.7,5.2,8.1,7.8,10.8c0.4,0.4,0.7,0.8,1,1.1c6.3,6.9,11.3,15.3,15.6,23.5
				c-5.6,3.6-10.8,6.3-15.8,8.2c-4,1.5-6.8,5.1-7.3,9.3c-0.5,4.2,1.3,8.4,4.8,10.9c0.9,0.6,1.8,1.7,3,2.9c1.5,1.7,3.5,3.7,6,5.6
				c1.9,1.4,3.9,2.5,5.4,3.3c0.9,0.5,1.7,0.9,2.3,1.3c1.2,0.8,2.4,2.2,3.4,3.6c-2.6,5.5-4.6,12.4-2.4,21.2c-1.3,1.3-2.5,2.5-3.6,3.4
				c-3.3,2.8-4.8,7.1-3.9,11.4c0.9,4.3,4.2,7.6,8.4,8.6c2.6,0.7,5.3,1.4,7.8,2.1c0.2,0.1,0.5,0.1,0.7,0.2c0.8,2.1,1.9,4,3.3,5.6
				c2.1,2.5,5.6,5.4,11.3,6.8c1.8,4.6,4.9,10.5,9.7,16c9.9,11.3,23.9,17.3,40.4,17.3c16.8,0,31-3.2,42.1-9.5
				c9.6-5.4,14.7-11.8,17.1-14.9l0.4-0.5c1.3-1.6,2.4-3.2,3.3-4.6c4.2,2,8.8,3.1,13.5,3.2c0.1,0,0.2,0,0.2,0c3.4,0,6.6-1.5,8.8-4.1
				c2.2-2.7,3.1-6.2,2.5-9.6c-0.5-2.4-0.9-5-1.3-7.5l0-0.1c0-0.1,0-0.2-0.1-0.3c3.5-0.6,7.9-1.1,12.1-1.1c4,0,7.8-2.2,9.8-5.7
				c2-3.5,2.1-7.8,0.2-11.3c-0.9-1.7-1.8-3.4-2.8-5.2l-0.1-0.1c-1.5-2.8-2.9-5.6-4.5-8.4c0.7-0.5,1.4-0.9,2-1.4l0.2-0.2
				c3.6-2.5,7.4-5,11.1-7.5c3.6-2.4,5.5-6.5,5-10.8c-0.4-4.2-3.2-7.9-7.2-9.5c-3.3-1.3-6.3-2.6-9-3.9l7.2-5.9
				c4.3-3.5,10.6-8.5,16.5-11.4c3.7-1.9,6.1-5.6,6.3-9.7c0.2-4.1-1.9-8.1-5.4-10.3c-7.6-4.8-16-7.2-23.5-9.4
				c-2.2-0.6-4.3-1.2-6.3-1.9c10.6-17.5,19.1-36.5,25.2-56.7c1.1-3.8,0.3-7.8-2.2-10.8c-2.2-2.6-5.4-4.1-8.8-4.1c-0.5,0-1,0-1.5,0.1
				c-10.8,1.4-20.4,5.3-29.7,9l-12.6,5.1c-1.4,0.5-2.7,1.1-4.1,1.6c-0.5-17.1-0.4-34.6,0.1-53.4c0.1-4.4-2.2-8.4-6-10.5
				C190.8,9,188.9,8.5,187,8.5L187,8.5z M135.6,88.8c1,0,2.1-0.1,3.1-0.4c3.8-1.1,6.9-4.1,8-7.9c2.7-9.5,8.7-18.9,17.7-27.9
				c3.3-3.3,6.9-6.4,10.6-9.4c-0.1,15.2,0.1,29.8,0.8,44.1c0.2,5.4,4.1,9.8,9.4,10.8c1.7,0.3,3.6,0.5,5.4,0.5c7.2,0,14-2.5,20.3-5
				l12.6-5.1c1.5-0.6,2.9-1.2,4.4-1.7c-6,14.7-13.5,28.5-22.3,41.4c-1.8,2.6-2.4,5.8-1.8,8.9c0.7,3.1,2.6,5.8,5.3,7.4
				c7.2,4.4,15.1,6.8,22.2,8.8c-0.5,0.4-1,0.8-1.4,1.1l-17.8,14.6c-4.6,3.8-5.6,10.3-2.3,15.3c2.7,4,6,7.2,9.7,9.9
				c-2.2,1.5-4.4,3-6.5,4.4c-2.6,1.8-4.4,4.6-4.9,7.7c-0.5,3.1,0.3,6.4,2.3,8.9c1.4,1.8,2.7,3.7,3.9,5.8c0,0,0,0,0,0l-0.9,0.2
				c-0.9,0.2-1.6,0.3-2.3,0.4c-0.7,0.1-1.3,0.1-2,0.1c-0.4,0-0.8,0-1.3-0.1c0,0-0.1,0-0.1,0c-0.3,0-0.5,0-0.8,0
				c-3.4,0-6.6,1.5-8.8,4c-2.4,2.8-3.3,6.6-2.4,10.2c0.1,0.4,0.2,0.8,0.3,1.1c-0.2,0-0.4,0.1-0.6,0.1l-7,1.2c-4.2,0.7-7.6,3.6-9,7.6
				c-0.1,0.2-1.2,3.1-3.8,6.4l-0.4,0.6c-3.7,4.7-12.2,15.6-41.1,15.6c-10.7,0-19-3.7-24.5-10.9c-4.5-5.8-5.7-12-5.7-12.1
				c-1-5.5-5.8-9.4-11.3-9.4c-0.1,0-0.2,0-0.3,0l0,0c-0.2,0-0.3,0-0.5,0c-0.3,0-0.5,0-0.7,0c-0.2-4.3-2.8-8.2-6.7-10
				c0.8-2.7,0.5-5.6-0.8-8.3c-2.7-5.4-1.8-6.9,1.9-13.5l0.2-0.3c2-3.6,2-8-0.1-11.6c-3.1-5.2-7-11.8-13.8-16.3
				c-0.6-0.4-1.3-0.8-1.9-1.2c4-2.4,8.1-5.2,12.4-8.4c4.5-3.4,6-9.5,3.4-14.5c-4.6-8.9-9.3-18.1-15.2-26.6c1.4-0.2,2.7-0.4,4.1-0.7
				c3.2-0.5,6.4-1.1,9.4-1.6c3-0.5,6.2-1.1,9.2-1.6c5.6-0.9,9.8-6,9.6-11.7c0-0.8,0.2-2.2,0.5-3.6c0.3-1.4,0.5-2.9,0.7-4.6
				c0.3-2.8-0.2-7.1-2.2-20.4c-0.4-2.9-1-6.6-1-7.4c-0.4-6.8-0.2-10.8,0.3-14.6c3.4,3.4,6.7,6.8,10,10.1c5.5,5.6,11.1,11.3,17,16.8
				C129.9,87.7,132.7,88.8,135.6,88.8L135.6,88.8z"/>
		</g>
	</g>
	<g>
		<g>
			<path class="st0" d="M150.8,87.4c3,0,5.9,0.2,8.8,0.7c11.1,1.7,21.2,6.8,28.3,14.3c21.1,21.6,17.8,74.2,16.2,91.3
				c3,0.7,11.7,4,11.3,16.8c-0.5,14.8-7.2,17.6-13.3,18l-0.2,4c0.5,1.2,2.6,6,0.9,10.6c-1,2.8-3.1,4.9-6.2,6.3
				c-0.1,0.1-0.3,0.1-0.4,0.1c-0.4,0-0.7-0.2-0.9-0.6c-0.2-0.5,0-1.1,0.5-1.3c2.6-1.2,4.4-2.9,5.2-5.2c1.5-4.3-0.9-9.2-1-9.2
				c-0.1-0.2-0.1-0.3-0.1-0.5l0.2-5.2c0-0.5,0.4-0.9,1-1c6.1-0.2,11.9-2.3,12.3-16.1c0.4-13.5-10.1-14.9-10.5-14.9
				c-0.5-0.1-0.9-0.6-0.9-1.1c1.2-11.3,5.9-68.7-15.5-90.6c-6.8-7.1-16.5-12-27.2-13.7c-2.7-0.4-5.6-0.6-8.5-0.6
				c-7.4,0-15.3,1.4-22.8,4c-27.5,9.7-37.5,36.3-41.1,57c-3.9,22.5-1.2,43-1.2,43.2c0.1,0.4-0.2,0.9-0.6,1l-9.3,4.2
				c-0.1,0.1-0.3,0.1-0.4,0.1c-0.4,0-0.7-0.2-0.9-0.6c-0.2-0.5,0-1.1,0.5-1.3l8.7-3.9c-0.4-3.9-2.3-22.7,1.2-43
				c5.2-30.4,19.9-50.6,42.4-58.6C135.1,88.8,143.2,87.4,150.8,87.4 M150.8,77.4C150.8,77.4,150.8,77.4,150.8,77.4
				c-8.8,0-18.1,1.6-26.8,4.7c-13.1,4.6-24.1,12.9-32.4,24.4c-8.1,11.1-13.6,25.2-16.5,41.9c-2.7,15.4-2.5,29.8-2,38.6l-2.2,1
				c-2.7,1.2-4.7,3.4-5.8,6.1c-1,2.7-0.9,5.7,0.3,8.4c1.8,3.9,5.7,6.5,10,6.5c1.6,0,3.1-0.3,4.6-1l9.3-4.2c4.4-2,7-6.7,6.4-11.5
				c0-0.2-2.5-19.4,1.1-40.2c3.1-18,11.6-41.2,34.5-49.2c6.4-2.3,13.1-3.5,19.5-3.5c2.4,0,4.7,0.2,6.9,0.5
				c8.6,1.3,16.2,5.1,21.5,10.7c0,0,0.1,0.1,0.1,0.1c15.2,15.5,15.1,59.2,12.7,82.6c-0.6,5.9,3.6,11.2,9.4,12
				c0.6,0.1,2.1,0.6,1.9,4.7c-0.1,4-0.8,5.7-1,6.2c-0.3,0.1-0.7,0.1-1.6,0.2c-5.7,0.2-10.4,4.8-10.6,10.5l-0.2,5.2
				c-0.1,1.8,0.3,3.7,1.1,5.3c0.1,0.3,0.3,0.7,0.3,1c-5.3,2.6-7.6,9-5.2,14.4c1.8,3.9,5.7,6.5,10,6.5c1.6,0,3.1-0.3,4.5-1
				c5.7-2.6,9.7-6.8,11.6-12.1c1.4-3.9,1.4-7.7,0.9-10.8c6.1-3.4,11.7-10.4,12.2-24.7c0.4-11.5-4.5-18.9-10.7-23.2
				c1.8-24.7,1.8-70.4-19.5-92.2c-8.6-9-20.7-15.1-34-17.2C157.8,77.7,154.3,77.4,150.8,77.4L150.8,77.4z"/>
		</g>
	</g>
	<g>
		<g>
			<path class="st0" d="M202.9,193.5C202.9,193.5,203,193.5,202.9,193.5c0.6,0,1.1,0.5,1,1c0,0.1-0.4,11.3,0,20.6c0,0.6-0.4,1-1,1
				c0,0,0,0,0,0c-0.5,0-1-0.4-1-1c-0.4-9.4,0-20.6,0-20.7C202,193.9,202.4,193.5,202.9,193.5 M202.9,183.5
				C202.9,183.5,202.9,183.5,202.9,183.5c-5.9,0-10.7,4.7-11,10.6c0,0.1-0.4,11.7,0,21.5c0.2,5.9,5.1,10.6,11,10.6
				c0.1,0,0.3,0,0.4,0v0c2.9-0.1,5.7-1.4,7.6-3.5c2-2.2,3-5,2.9-7.9c-0.4-8.9,0-19.7,0-19.8c0.1-2.9-0.9-5.7-3-7.9
				c-2-2.1-4.6-3.3-7.4-3.5C203.3,183.5,203.1,183.5,202.9,183.5L202.9,183.5z"/>
		</g>
	</g>
	<g>
		<g>
			<path class="st0" d="M84.8,192.8c0.5,0,1,0.4,1,0.9l0.9,16.8c0,0.6-0.4,1-0.9,1.1c0,0,0,0-0.1,0c-0.5,0-1-0.4-1-0.9l-0.9-16.8
				C83.7,193.3,84.2,192.8,84.8,192.8C84.7,192.8,84.8,192.8,84.8,192.8 M84.8,182.8c-0.2,0-0.4,0-0.6,0c-6,0.3-10.7,5.5-10.3,11.6
				l0.9,16.8c0.3,5.8,5.1,10.4,11,10.4c0.2,0,0.4,0,0.6,0c6.1-0.3,10.7-5.5,10.4-11.6l-0.9-16.8C95.4,187.4,90.6,182.8,84.8,182.8
				L84.8,182.8z"/>
		</g>
	</g>
	<g>
		<g>
			<path class="st0" d="M95.5,218.6c0.4,0,0.8,0.2,0.9,0.6c0.2,0.5-0.1,1.1-0.6,1.3c-0.2,0.1-15.9,6.3-15.2,20.2
				c0,0.6-0.4,1-0.9,1.1c0,0,0,0-0.1,0c-0.5,0-1-0.4-1-0.9c-0.8-15.3,16.3-22.1,16.5-22.2C95.3,218.6,95.4,218.6,95.5,218.6
				 M95.5,208.6c-1.3,0-2.7,0.2-3.9,0.7c-8.4,3.2-23.9,14-22.9,32c0.3,5.8,5.1,10.4,11,10.4c0.2,0,0.4,0,0.6,0
				c6.1-0.3,10.7-5.5,10.4-11.6c-0.3-6.4,8.5-10.2,8.9-10.3c5.6-2.2,8.4-8.5,6.2-14.2C104.2,211.4,100.1,208.6,95.5,208.6
				L95.5,208.6z"/>
		</g>
	</g>
	<g>
		<g>
			<path class="st0" d="M101.4,243.1c0.4,0,0.7,0.2,0.9,0.5c0.3,0.5,0.1,1.1-0.4,1.4c-0.2,0.1-5.4,2.9-11.6,2.9
				c-0.8,0-1.5,0-2.3-0.1c-0.5-0.1-0.9-0.6-0.9-1.1c0.1-0.5,0.5-0.9,1-0.9c0,0,0.1,0,0.1,0c0.7,0.1,1.4,0.1,2.1,0.1
				c5.7,0,10.6-2.6,10.7-2.6C101.1,243.1,101.2,243.1,101.4,243.1 M101.4,233.1C101.4,233.1,101.4,233.1,101.4,233.1
				c-1.8,0-3.6,0.4-5.2,1.3c-0.8,0.4-3.5,1.5-6,1.5c-0.3,0-0.6,0-0.9-0.1c-0.4,0-0.9-0.1-1.3-0.1c-5.6,0-10.3,4.2-10.9,9.7
				c-0.3,2.9,0.5,5.8,2.3,8.1c1.8,2.3,4.4,3.8,7.4,4.1c1.1,0.1,2.3,0.2,3.5,0.2c8.4,0,15.1-3.4,16.4-4.1c5.3-2.9,7.3-9.6,4.4-14.9
				C109.1,235.3,105.4,233.1,101.4,233.1L101.4,233.1z"/>
		</g>
	</g>
	<g>
		<g>
			<path class="st0" d="M72.1,219.5c0.3,0,0.7,0.2,0.8,0.5c0,0.1,4.5,7.1,10.2,7.5c0.6,0,1,0.5,0.9,1.1c0,0.5-0.5,0.9-1,0.9
				c0,0,0,0-0.1,0c-6.7-0.5-11.5-8.1-11.7-8.4c-0.3-0.5-0.1-1.1,0.3-1.4C71.7,219.5,71.9,219.5,72.1,219.5 M72.1,209.5
				c-2.1,0-4.1,0.6-5.9,1.7c-2.5,1.5-4.2,4-4.9,6.8c-0.7,2.9-0.2,5.8,1.4,8.3c1.3,2,8.2,12.3,19.5,13.1c0.1,0,0.2,0,0.2,0
				c0.2,0,0.3,0,0.5,0c5.8,0,10.6-4.5,11-10.3c0.2-2.9-0.8-5.8-2.7-8c-1.8-2.1-4.4-3.4-7.1-3.7c-0.7-0.4-2.1-1.8-2.8-2.9
				C79.3,211.4,75.9,209.5,72.1,209.5L72.1,209.5z"/>
		</g>
	</g>
	<g>
		<g>
			<path class="st0" d="M136.4,225.2c14.7,0,32.5,2,51.9,8.3c0.5,0.2,0.8,0.7,0.6,1.3c-0.1,0.4-0.5,0.7-1,0.7c-0.1,0-0.2,0-0.3,0
				c-19.2-6.2-36.8-8.2-51.3-8.2c-24.5,0-40.3,5.6-40.5,5.7c-0.1,0-0.2,0.1-0.3,0.1c-0.4,0-0.8-0.3-0.9-0.7
				c-0.2-0.5,0.1-1.1,0.6-1.3C95.5,230.9,111.5,225.2,136.4,225.2 M136.5,215.2v10V215.2c-26.9,0-44,6.2-44.7,6.4
				c-5.7,2.1-8.6,8.4-6.5,14.1c1.6,4.3,5.7,7.2,10.3,7.2c1.3,0,2.5-0.2,3.7-0.7c0.5-0.2,15-5.1,37.2-5.1c16.2,0,32.4,2.6,48.2,7.7
				c1.1,0.4,2.2,0.5,3.4,0.5c4.8,0,9-3.1,10.5-7.6c1.9-5.8-1.3-12-7.1-13.8C173.5,218.2,155,215.2,136.5,215.2L136.5,215.2z"/>
		</g>
	</g>
	<g>
		<g>
			<path class="st0" d="M188.1,220.7c0.1,0,0.2,0,0.3,0.1c0.4,0.2,10.7,3.8,14.1,13.4c0.2,0.5-0.1,1.1-0.6,1.3
				c-0.1,0-0.2,0.1-0.3,0.1c-0.4,0-0.8-0.3-0.9-0.7c-3.1-8.6-12.8-12.1-12.9-12.2c-0.5-0.2-0.8-0.8-0.6-1.3
				C187.3,220.9,187.7,220.7,188.1,220.7 M188.1,210.7C188.1,210.7,188.1,210.7,188.1,210.7c-4.7,0-8.8,3-10.4,7.3
				c-1,2.8-0.8,5.8,0.5,8.4c1.3,2.6,3.4,4.6,6.1,5.6c1.4,0.6,5.8,2.9,6.9,6.2c1.6,4.3,5.7,7.3,10.3,7.3c1.3,0,2.5-0.2,3.7-0.7
				c2.8-1,5-3,6.2-5.7c1.3-2.7,1.4-5.7,0.4-8.4c-4.9-13.7-18.7-18.9-20.2-19.4C190.5,210.9,189.3,210.7,188.1,210.7L188.1,210.7z"/>
		</g>
	</g>
	<g>
		<g>
			<path class="st0" d="M175.9,243.1c0.3,0,0.6,0.1,0.8,0.4c0.2,0.2,4.1,4.9,12.1,4.9c0.7,0,1.5,0,2.3-0.1c0,0,0.1,0,0.1,0
				c0.5,0,0.9,0.4,1,0.9c0.1,0.5-0.3,1-0.9,1.1c-0.9,0.1-1.7,0.1-2.5,0.1c-9,0-13.5-5.4-13.7-5.7c-0.3-0.4-0.3-1.1,0.2-1.4
				C175.5,243.2,175.7,243.1,175.9,243.1 M175.9,233.1c-2.5,0-4.9,0.9-6.9,2.4c-2.3,1.8-3.8,4.5-4.1,7.4c-0.3,2.9,0.5,5.8,2.4,8.1
				c3.4,4.3,11.1,9.4,21.5,9.4c1.2,0,2.4-0.1,3.6-0.2c2.9-0.3,5.5-1.7,7.4-4c1.8-2.3,2.7-5.2,2.4-8.1c-0.6-5.6-5.3-9.8-10.9-9.8
				c-0.4,0-0.7,0-1.1,0.1c0,0-0.1,0-0.1,0c-0.4,0-0.9,0.1-1.3,0.1c-2.8,0-4.2-1.2-4.5-1.4C182.2,234.5,179.2,233.1,175.9,233.1
				L175.9,233.1z"/>
		</g>
	</g>
	<g>
		<g>
			<path class="st0" d="M135.3,179.1c0.1,0,0.3,0,0.4,0.1c0.5,0.2,0.7,0.8,0.5,1.3c-3.6,8.3-11.3,30.9-4,35.4
				c0.9,0.6,1.8,0.8,2.6,0.8c0.5,0,1.1-0.1,1.6-0.4c4.4-2,6.9-12.2,7.5-16c0.1-0.5,0.5-0.8,1-0.8c0.1,0,0.1,0,0.2,0
				c0.5,0.1,0.9,0.6,0.8,1.1c-0.1,0.6-2.4,14.6-8.6,17.5c-0.8,0.4-1.6,0.5-2.4,0.5c-1.2,0-2.4-0.4-3.7-1.1
				c-10.3-6.2,2.6-36.6,3.2-37.9C134.5,179.3,134.9,179.1,135.3,179.1 M135.3,169.1c-4.4,0-8.4,2.6-10.1,6.7
				c-0.4,0.9-4,9.4-6.2,18.7c-3.8,15.9-1.4,26.5,7,31.6c2.8,1.7,5.8,2.6,8.8,2.6c2.3,0,4.5-0.5,6.6-1.5c10-4.7,13.4-19,14.3-24.9
				c1-6-3.1-11.6-9.1-12.6c-0.6-0.1-1.2-0.1-1.8-0.1c-0.5,0-1,0-1.5,0.1c0.6-1.7,1.3-3.5,2-5.2c1.2-2.7,1.2-5.7,0.1-8.4
				c-1.1-2.7-3.2-4.9-5.9-6C138.3,169.4,136.8,169.1,135.3,169.1L135.3,169.1z"/>
		</g>
	</g>
	<g>
		<g>
			<path class="st0" d="M154.4,194.4c0.2,0,0.4,0.1,0.6,0.2c0.1,0.1,5.3,3.6,13.2,3.6c3.1,0,6.7-0.6,10.5-2.1
				c0.1-0.1,0.3-0.1,0.4-0.1c0.4,0,0.8,0.2,0.9,0.6c0.2,0.5,0,1.1-0.5,1.3c-4.2,1.7-8,2.3-11.4,2.3c-8.4,0-13.9-3.8-14.2-4
				c-0.5-0.3-0.6-0.9-0.2-1.4C153.8,194.5,154.1,194.4,154.4,194.4 M154.4,184.4c-3.6,0-7,1.8-9,4.7c-3.5,5-2.3,11.8,2.7,15.3
				c1.4,1,8.9,5.8,20,5.8c5.1,0,10.3-1,15.2-3.1c5.6-2.3,8.3-8.8,6-14.4c-1.7-4.1-5.7-6.8-10.2-6.8c-1.4,0-2.8,0.3-4.1,0.8
				c0,0,0,0-0.1,0c-2.2,0.9-4.5,1.4-6.7,1.4c-4.4,0-7.4-1.8-7.7-1.9C158.7,185,156.6,184.4,154.4,184.4L154.4,184.4z"/>
		</g>
	</g>
	<g>
		<g>
			<path class="st0" d="M99.4,190.3c0.2,0,0.4,0,0.5,0.2c0.1,0,4.7,2.9,11,2.9c2.6,0,5.4-0.5,8.3-1.8c0.1-0.1,0.3-0.1,0.4-0.1
				c0.4,0,0.7,0.2,0.9,0.6c0.2,0.5,0,1.1-0.5,1.3c-3.2,1.5-6.4,2-9.2,2c-6.7,0-11.7-3-12-3.2c-0.5-0.3-0.6-0.9-0.3-1.4
				C98.7,190.5,99,190.3,99.4,190.3 M99.4,180.3c-3.8,0-7.3,1.9-9.3,5.2c-3.2,5.1-1.7,11.9,3.5,15.2c1.3,0.8,8.1,4.8,17.3,4.8
				c4.7,0,9.2-1,13.4-3c2.7-1.2,4.7-3.4,5.7-6.2c1-2.8,0.9-5.8-0.4-8.4c-1.8-3.9-5.7-6.3-10-6.3c-1.6,0-3.2,0.4-4.7,1
				c-1.3,0.6-2.6,0.9-4,0.9c-3.2,0-5.8-1.5-5.9-1.5c0.1,0.1,0.2,0.1,0.2,0.1C103.4,180.9,101.4,180.3,99.4,180.3L99.4,180.3z"/>
		</g>
	</g>
	<g>
		<g>
			<path class="st0" d="M97.8,144.5c0.3,0,0.6,0.1,0.8,0.4c0.3,0.4,0.3,1.1-0.2,1.4v0c-0.4,0.3-9.2,7.3-7,22
				c2.1,14.4,13.3,14.4,13.8,14.4c0.6,0,1,0.4,1,1c0,0.6-0.4,1-1,1c0,0,0,0,0,0c-0.5,0-13.5-0.2-15.8-16.1
				c-2.3-15.9,7.4-23.5,7.8-23.8C97.4,144.6,97.6,144.5,97.8,144.5 M97.8,134.5c-2.4,0-4.8,0.8-6.7,2.3
				c-1.5,1.1-14.7,11.9-11.6,33.2c2.8,19.5,18.1,24.7,25.7,24.7c0.1,0,0.1,0,0.2,0c6-0.1,10.9-5.1,10.8-11.2
				c-0.1-6-4.9-10.7-10.9-10.8c0,0,0,0,0,0c-2.1-0.2-3.5-2.1-4-5.8c-1.2-8.3,2.8-12.2,3.4-12.7c4.7-3.7,5.5-10.6,1.9-15.3
				C104.5,136.1,101.2,134.5,97.8,134.5L97.8,134.5z"/>
		</g>
	</g>
	<g>
		<g>
			<path class="st0" d="M131,141.1c0.2,0,0.5,0.1,0.7,0.3c0.4,0.3,9.1,8.6,7,22.4c-2.1,13.8-12.2,19.2-12.7,19.4
				c-0.1,0.1-0.3,0.1-0.5,0.1c-0.4,0-0.7-0.2-0.9-0.5c-0.3-0.5-0.1-1.1,0.4-1.3c0.1,0,9.7-5.1,11.6-17.9c1.9-12.8-6.3-20.6-6.4-20.7
				c-0.4-0.4-0.4-1-0.1-1.4C130.5,141.3,130.8,141.1,131,141.1 M131,131.1C131,131.1,131,131.1,131,131.1c-3.1,0-6,1.3-8.1,3.5
				c-4.1,4.4-3.9,11.2,0.4,15.4c0.4,0.4,4.6,4.9,3.5,12c-1.1,7.2-6,10.3-6.5,10.6c-5.2,2.8-7.3,9.4-4.5,14.7c1.9,3.7,5.6,6,9.8,6
				c1.7,0,3.5-0.4,5-1.2c1.6-0.8,15.2-8.3,18-26.8c2.8-18.7-8.8-30-10.2-31.3C136.5,132.2,133.8,131.1,131,131.1L131,131.1z"/>
		</g>
	</g>
	<g>
		<g>
			<path class="st0" d="M151.1,144.5c0.2,0,0.4,0.1,0.6,0.2c0.4,0.3,0.6,0.9,0.2,1.4c-0.1,0.1-6.4,9.1-4.9,22.2
				c1.5,13.3,14.2,18.9,25.6,19.8c0.4,0,0.7,0,1.1,0c6.2,0,13.5-3.7,18.1-9.3c3.6-4.4,7.3-11.8,4.4-22.3c-0.1-0.5,0.2-1.1,0.7-1.2
				c0.1,0,0.2,0,0.3,0c0.4,0,0.8,0.3,1,0.7c2.4,8.8,0.7,17.4-4.8,24.1c-5,6.1-12.8,10-19.6,10c-0.4,0-0.9,0-1.3,0
				c-12.2-0.9-25.8-7.1-27.4-21.5c-1.6-13.9,4.9-23.2,5.2-23.6C150.5,144.7,150.8,144.5,151.1,144.5 M151.1,134.5
				c-3.5,0-6.9,1.7-8.9,4.6c-0.9,1.3-9,13.2-7,30.6c1.9,16.9,16.3,28.8,36.6,30.4c0.7,0.1,1.4,0.1,2.1,0.1c9.9,0,20.4-5.2,27.3-13.6
				c7.5-9.1,10-21.2,6.8-33.1c-1.3-4.8-5.7-8.1-10.6-8.1c-1,0-1.9,0.1-2.9,0.4c-5.9,1.6-9.3,7.6-7.7,13.5c1.4,5.2,0.6,9.5-2.5,13.3
				c-3,3.7-7.6,5.6-10.4,5.6c-0.1,0-0.2,0-0.4,0c-3.6-0.3-15.3-1.9-16.4-10.9c-1-8.8,2.8-14.9,3.2-15.4c3.4-4.9,2.2-11.7-2.6-15.2
				C155.6,135.2,153.4,134.5,151.1,134.5L151.1,134.5z"/>
		</g>
	</g>
	<g>
		<g>
			<path class="st0" d="M129.1,153c5.6,0,7.5,0.3,7.6,0.3c0.5,0.1,0.9,0.6,0.8,1.1c-0.1,0.5-0.5,0.8-1,0.8c-0.1,0-0.1,0-0.2,0
				c0,0-1.9-0.3-7.4-0.3c-2.8,0-6.5,0.1-11.4,0.3c-14.5,0.7-26.6,3.7-26.7,3.7c-0.1,0-0.2,0-0.2,0c-0.4,0-0.9-0.3-1-0.8
				c-0.1-0.5,0.2-1.1,0.7-1.2c0.1,0,12.3-3.1,27.1-3.8C122.5,153,126.2,153,129.1,153 M129.1,143c-3.4,0-7.5,0.1-12,0.3
				c-15.7,0.7-28.6,3.9-29.1,4.1c-2.9,0.7-5.2,2.5-6.8,5c-1.5,2.5-1.9,5.5-1.2,8.3c1.2,4.9,5.6,8.3,10.7,8.3c0.9,0,1.8-0.1,2.7-0.3
				c0.1,0,11.3-2.8,24.7-3.4c4.2-0.2,7.9-0.3,11-0.3c4,0,5.7,0.2,6,0.2c0.5,0.1,1,0.1,1.5,0.1c5.4,0,10-3.9,10.9-9.2
				c0.5-2.9-0.2-5.8-1.9-8.2c-1.7-2.4-4.3-4-7.2-4.4C137.3,143.2,134.7,143,129.1,143L129.1,143z"/>
		</g>
	</g>
	<g>
		<g>
			<path class="st0" d="M132.5,175.2c0.5,0,1,0.4,1,0.9c0,0.6-0.4,1-0.9,1.1l-36.1,2.3c0,0,0,0-0.1,0c-0.5,0-1-0.4-1-0.9
				c0-0.6,0.4-1,0.9-1.1L132.5,175.2C132.5,175.2,132.5,175.2,132.5,175.2 M132.5,165.2c-0.1,0-0.3,0-0.5,0c-0.1,0-0.1,0-0.2,0
				l-36.1,2.3c-6.1,0.4-10.7,5.6-10.3,11.7c0.4,5.8,5.2,10.3,11,10.3c0.2,0,0.3,0,0.5,0c0.1,0,0.1,0,0.2,0l36.1-2.3
				c6.1-0.4,10.7-5.6,10.3-11.7C143.1,169.8,138.3,165.2,132.5,165.2L132.5,165.2z"/>
		</g>
	</g>
	<g>
		<g>
			<path class="st0" d="M146,159.3c0.1,0,0.1,0,0.2,0c0.4,0.1,11,1.8,17.7,4.3c6.5,2.4,33.9,2.7,34.1,2.7c0.6,0,1,0.5,1,1
				c0,0.5-0.5,1-1,1c0,0,0,0,0,0c-1.1,0-28-0.3-34.8-2.8c-6.6-2.4-17.3-4.2-17.4-4.2c-0.5-0.1-0.9-0.6-0.8-1.2
				C145.1,159.7,145.6,159.3,146,159.3 M146,149.3C146,149.3,146,149.3,146,149.3c-5.4,0-10,3.9-10.8,9.2c-0.5,2.9,0.2,5.8,1.9,8.2
				c1.7,2.4,4.2,4,7.1,4.5c2.7,0.5,10.9,2,15.6,3.7c7.7,2.8,29.3,3.3,38.2,3.4c0,0,0.1,0,0.1,0c6,0,11-4.9,11-10.9
				c0-2.9-1.1-5.7-3.2-7.8c-2.1-2.1-4.8-3.3-7.8-3.3c-11.9-0.1-27.5-1-30.8-2.1c-7.4-2.7-18.2-4.6-19.5-4.8
				C147.3,149.4,146.6,149.3,146,149.3L146,149.3z"/>
		</g>
	</g>
	<g>
		<g>
			<path class="st0" d="M137.8,116.2c18.8,0,37,5.3,46.2,9.1c8.8,3.7,11.5,8.8,11.1,12c-0.2,2.1-1.6,3.6-3.7,4
				c-0.2,0-0.5,0.1-0.8,0.1c-1.8,0-4.2-1-7.6-2.4c-7.3-2.9-19.6-7.9-38.1-8c-0.5,0-1,0-1.4,0c-26.4,0-37.7,5.7-37.8,5.7
				c-0.1,0.1-0.3,0.1-0.5,0.1c0,0,0,0-0.1,0c-0.1,0-2.3-0.1-3.7-1.8c-1-1.2-1.3-2.7-1.1-4.7c0.8-5.8,9.3-10.7,22.8-13
				C128,116.5,132.9,116.2,137.8,116.2 M105,134.8c2-0.9,13.4-5.8,38.3-5.8c0.5,0,1,0,1.5,0c18.9,0.2,31.4,5.2,38.9,8.2
				c3,1.2,5.5,2.2,6.9,2.2c0.1,0,0.3,0,0.4,0c1.2-0.2,1.9-1.1,2.1-2.3c0.3-2.8-2.7-6.9-9.9-10c-9-3.8-26.9-8.9-45.4-8.9
				c-4.8,0-9.6,0.3-14.3,1.1c-12.2,2.1-20.6,6.5-21.2,11.3c-0.2,1.4,0,2.4,0.6,3.1C103.6,134.5,104.6,134.8,105,134.8 M137.8,106.2
				v10V106.2c-5.7,0-11.2,0.4-16.3,1.3c-25.1,4.3-30.3,15.3-31.1,21.5c-0.8,6,1.4,10.1,3.3,12.4c3.8,4.6,9,5.3,10.7,5.4
				c0.2,0,0.5,0,0.7,0c1.7,0,3.4-0.4,4.9-1.2c0.5-0.2,10.7-4.7,33.4-4.7c0.4,0,0.9,0,1.3,0c16.7,0.1,27.4,4.4,34.5,7.3
				c4.3,1.7,7.7,3.1,11.4,3.1c0.9,0,1.8-0.1,2.7-0.3c6.3-1.2,11.1-6.4,11.7-12.8c0.7-7-3.4-16.5-17.2-22.3
				C176.4,111.3,157.3,106.2,137.8,106.2L137.8,106.2z"/>
		</g>
	</g>
	<g>
		<g>
			<path class="st0" d="M106.6,161.1c0.5,0,0.9,0.4,1,0.9c0.1,0.7,0.2,1.4,0.3,2.2c0.7-0.3,1.5-0.6,2.2-1c0.2-0.1,0.3-0.1,0.5-0.1
				c0.3,0,0.7,0.2,0.9,0.5c0.3,0.5,0.1,1.1-0.4,1.4c-0.9,0.5-1.8,1.1-2.7,1.6c0,0.1,0,0.2,0.1,0.3c0.2,0,0.4,0,0.5,0
				c0.6,0,1.3,0,2,0.1c0.5,0.1,0.8,0.4,0.9,0.9c0,0.5-0.3,0.9-0.7,1l-0.9,0.3c-0.1,0-0.2,0-0.3,0c-0.3,0-0.6-0.1-0.8-0.4
				c0,0-0.1,0-0.1,0s-0.1,0-0.1,0c0.1,0.4,0.2,0.9,0.3,1.3c0.1,0.5-0.1,1-0.6,1.2c-0.1,0.1-0.3,0.1-0.4,0.1c-0.3,0-0.7-0.2-0.9-0.5
				c-0.4-0.6-0.9-1.2-1.4-1.8c-1.1,0.2-2.2,0.6-3.2,1.1c-0.1,0.1-0.3,0.1-0.4,0.1c-0.4,0-0.7-0.2-0.9-0.5c-0.3-0.5-0.1-1,0.3-1.3
				c0.5-0.4,1.1-0.7,1.6-1.1c-0.2-0.1-0.4-0.2-0.6-0.2c-0.5-0.2-0.7-0.6-0.7-1.1c0.1-0.5,0.5-0.8,0.9-0.9c1-0.1,2-0.2,3-0.4
				c-0.1-0.8-0.3-1.7-0.4-2.5c-0.1-0.5,0.3-1.1,0.8-1.1C106.5,161.1,106.5,161.1,106.6,161.1 M106.6,151.1c-0.5,0-1,0-1.5,0.1
				c0,0,0,0-0.1,0c-3.7,0.5-6.7,2.8-8.3,5.9c-2.5,1.7-4.2,4.4-4.6,7.5c0,0.2,0,0.4-0.1,0.6c-1.2,3-1,6.4,0.6,9.4
				c1.9,3.5,5.6,5.6,9.6,5.6c0.3,0,0.7,0,1-0.1c1.5,0.7,3.2,1.1,4.9,1.1c1.5,0,2.9-0.3,4.2-0.8c1.8-0.8,3.4-2,4.5-3.5
				c3.3-2.2,5.2-6,4.8-10.1c-0.1-0.6-0.2-1.2-0.3-1.8c0.2-2.2-0.2-4.5-1.3-6.5c-1.5-2.6-4-4.5-6.8-5.2
				C111.4,152,109.1,151.1,106.6,151.1L106.6,151.1z"/>
		</g>
	</g>
	<g>
		<g>
			<path class="st0" d="M172.3,171.5C172.3,171.5,172.4,171.5,172.3,171.5c0.6,0,1.1,0.5,1,1c0,0.5,0,1,0,1.5c0.4,0,0.8,0.1,1.2,0.1
				c0.2,0,0.4,0,0.6,0c0,0,0,0,0.1,0c0.5,0,0.9,0.4,1,0.8c0.1,0.5-0.2,1-0.7,1.1c-0.7,0.2-1.3,0.4-2,0.6c0.8,0,1.8,0.1,2.6,0.7
				c0.1,0,0.2,0,0.3,0.1c0.4,0.2,0.7,0.6,0.7,1.1c0,0.5-0.4,0.9-0.8,1c-0.1,0-0.2,0-0.3,0c-0.4,0-0.7-0.2-1-0.5
				c-0.3-0.3-0.9-0.4-1.5-0.4c0,0.7,0.1,1.3,0.2,2c0.1,0.5-0.3,0.9-0.7,1.1c-0.1,0-0.2,0-0.3,0c-0.4,0-0.7-0.2-0.9-0.6
				c-0.4-0.8-0.8-1.7-1.2-2.5l-2.3,0c-0.5,0-0.9-0.3-1-0.8c-0.1-0.5,0.1-0.9,0.5-1.1c0.5-0.2,1-0.4,1.4-0.7
				c-0.2-0.4-0.4-0.9-0.7-1.3c-0.4-0.3-0.8-0.7-0.8-1.2c-0.1-0.5,0.1-0.9,0.4-1.2c0.2-0.2,0.4-0.3,0.7-0.3c0.1,0,0.1,0,0.2,0
				c0.3,0.1,0.6,0.2,0.7,0.5c0.1,0.2,0.2,0.4,0.3,0.7c0.4,0.2,0.8,0.3,1.2,0.4c0-0.4,0-0.8,0-1.2
				C171.4,171.9,171.8,171.5,172.3,171.5 M172.3,161.5c-1.2,0-2.4,0.2-3.5,0.6c-2.7,0-5.3,1-7.3,2.8c-2.7,2.4-4,5.8-3.7,9.4
				c-0.6,1.8-0.7,3.8-0.3,5.8c0.8,3.7,3.4,6.6,6.8,7.9c2.1,2.4,5.1,3.8,8.4,3.8c1,0,2-0.1,3-0.4c1.8-0.5,3.3-1.4,4.6-2.6
				c3.9-1.6,6.5-5.2,6.8-9.5c0.1-1.9-0.2-3.7-0.9-5.3c0-0.2,0-0.4-0.1-0.6c-0.5-3.2-2.4-5.9-4.9-7.6c-0.2-0.3-0.5-0.6-0.7-0.8
				c-2-2.1-4.6-3.3-7.5-3.5C172.7,161.5,172.5,161.5,172.3,161.5L172.3,161.5z"/>
		</g>
	</g>
	<g>
		<g>
			<path class="st0" d="M46.4,61.5c1.4,0,2.7,0.3,3.8,0.9c2.4,1.3,4.2,3.7,4.9,6.7c0.6,2.5,0.2,4.7-1,6.1C53,76.5,51.4,77,49.9,77
				c-0.7,0-1.3-0.1-1.9-0.2c-2.7-0.7-5.1-2.5-6.4-5c-1.1-2.2-2-6.4,0.3-8.6C43.1,62,44.8,61.5,46.4,61.5 M49.9,75c1,0,2.1-0.3,2.8-1
				c1.2-1.3,0.8-3.4,0.6-4.3c-0.6-2.4-2.1-4.5-3.9-5.4c-0.8-0.4-1.9-0.7-2.9-0.7c-1.2,0-2.3,0.3-3.1,1c-1.4,1.3-0.8,4.5,0.1,6.3
				c1,2,2.9,3.5,5,4C48.9,74.9,49.4,75,49.9,75 M46.4,51.5C46.4,51.5,46.4,51.5,46.4,51.5c-4.4,0-8.4,1.6-11.4,4.4
				c-5.9,5.6-5.3,14.5-2.3,20.4c2.6,5,7.4,8.9,12.9,10.2c1.4,0.3,2.8,0.5,4.2,0.5c4.6,0,8.8-1.8,11.7-5c3.5-3.9,4.7-9.5,3.3-15.2
				c-1.4-5.8-5.1-10.6-10-13.1C52.4,52.3,49.4,51.5,46.4,51.5L46.4,51.5z"/>
		</g>
	</g>
	<g>
		<g>
			<path class="st0" d="M64.7,54.1c0.9,0,1.7,0.3,2.4,1c1.2,1.1,1.6,2.9,1.1,4.6c-0.4,1.3-1.2,2.4-2.6,3.5c-0.7,0.6-1.7,1.3-3,1.3
				c0,0,0,0,0,0c-1.5,0-2.9-1.1-3.3-2.6c-0.4-1.2-0.2-2.6,0.5-3.9c0.6-1.2,2.2-3.4,4.3-3.8C64.3,54.1,64.5,54.1,64.7,54.1
				 M62.7,62.5C62.7,62.5,62.7,62.5,62.7,62.5c0.5,0,1-0.3,1.7-0.8c1-0.9,1.7-1.7,1.9-2.6c0.3-0.9,0.1-2-0.5-2.5
				c-0.3-0.3-0.7-0.5-1.1-0.5c-0.1,0-0.2,0-0.3,0c-1.1,0.2-2.3,1.5-2.9,2.7c-0.3,0.5-0.6,1.5-0.3,2.5C61.5,62,62.1,62.5,62.7,62.5
				 M64.7,44.1c-0.8,0-1.6,0.1-2.5,0.2c-7,1.3-10.5,7.3-11.4,9.2c-1.8,3.6-2.2,7.7-1.1,11.3c1.8,5.7,7.1,9.7,12.9,9.7
				c3.4,0,6.6-1.2,9.4-3.7c2.8-2.4,4.7-5.1,5.7-8.2c1.7-5.4,0.1-11.3-3.9-14.9C71.3,45.4,68.1,44.1,64.7,44.1L64.7,44.1z"/>
		</g>
	</g>
	<g>
		<g>
			<path class="st0" d="M66.7,69.9c0.5,0,0.9,0.4,1,0.9c0.2,1.8,1.1,3.5,2.4,4.8c0.4,0.4,0.4,1,0,1.4c-0.2,0.2-0.5,0.3-0.7,0.3
				c-0.3,0-0.5-0.1-0.7-0.3c-1.6-1.6-2.7-3.7-2.9-6c-0.1-0.5,0.3-1,0.9-1.1C66.6,69.9,66.6,69.9,66.7,69.9 M66.7,59.9
				c-0.5,0-0.9,0-1.4,0.1c-6,0.8-10.3,6.3-9.6,12.3c0.6,4.5,2.6,8.7,5.8,11.8c2.1,2,4.8,3.2,7.7,3.2c2.9,0,5.8-1.2,7.8-3.3
				c2.1-2.1,3.2-4.9,3.2-7.8c0-2.7-1-5.3-2.8-7.3C76.5,63.7,72,59.9,66.7,59.9L66.7,59.9z"/>
		</g>
	</g>
	<g>
		<g>
			<path class="st0" d="M77.3,73.9c0.3,0,0.7,0.2,0.8,0.5c0.3,0.5,0.2,1.1-0.3,1.4c-1.7,1.1-3.3,2.5-4.6,4.1
				c-0.2,0.2-0.5,0.4-0.8,0.4c-0.2,0-0.5-0.1-0.6-0.2c-0.4-0.4-0.5-1-0.1-1.4c1.5-1.7,3.2-3.3,5.1-4.5
				C76.9,73.9,77.1,73.9,77.3,73.9 M77.3,63.9c-2.1,0-4.2,0.6-6,1.8c-2.8,1.8-5.2,4-7.3,6.5c-3.9,4.7-3.3,11.6,1.4,15.5
				c2,1.6,4.5,2.5,7,2.5c3.3,0,6.4-1.4,8.5-4c0.7-0.8,1.5-1.5,2.4-2.1c2.5-1.6,4.2-4.1,4.8-6.9c0.6-2.9,0.1-5.8-1.5-8.3
				C84.5,65.8,81,63.9,77.3,63.9L77.3,63.9z"/>
		</g>
	</g>
	<g>
		<g>
			<path class="st0" d="M75.6,81.1C75.6,81.1,75.7,81.1,75.6,81.1l6.2,0.6c0.5,0.1,1,0.5,0.9,1.1c-0.1,0.5-0.5,0.9-1,0.9
				c0,0-0.1,0-0.1,0l-6.1-0.6c-0.5-0.1-1-0.5-0.9-1.1C74.7,81.4,75.1,81.1,75.6,81.1 M75.6,71.1C75.6,71.1,75.6,71.1,75.6,71.1
				c-5.7,0-10.4,4.3-10.9,9.9c-0.3,2.9,0.6,5.8,2.4,8.1c1.9,2.3,4.5,3.7,7.4,4l6.1,0.6c0.4,0,0.7,0.1,1.1,0.1
				c5.7,0,10.4-4.3,10.9-9.9c0.3-2.9-0.6-5.8-2.4-8.1c-1.9-2.3-4.5-3.7-7.4-4l-6.1-0.6C76.3,71.1,76,71.1,75.6,71.1L75.6,71.1z"/>
		</g>
	</g>
	<g>
		<g>
			<path class="st0" d="M72.6,85.3c0.4,0,0.7,0.2,0.9,0.5l2.3,4.1c0.3,0.5,0.1,1.1-0.4,1.4c-0.2,0.1-0.3,0.1-0.5,0.1
				c-0.4,0-0.7-0.2-0.9-0.5l-2.3-4.1c-0.3-0.5-0.1-1.1,0.4-1.4C72.2,85.3,72.4,85.3,72.6,85.3 M72.6,75.3c-1.9,0-3.7,0.5-5.3,1.4
				c-2.6,1.4-4.4,3.8-5.3,6.6c-0.8,2.8-0.5,5.8,1,8.4l2.3,4.1c1.9,3.5,5.6,5.7,9.6,5.7c1.9,0,3.7-0.5,5.3-1.4
				c2.6-1.4,4.4-3.8,5.2-6.6c0.8-2.8,0.5-5.8-1-8.4L82.2,81C80.2,77.5,76.6,75.3,72.6,75.3L72.6,75.3z"/>
		</g>
	</g>
	<g>
		<g>
			<path class="st0" d="M66.3,84.6c0.2,0,0.5,0.1,0.7,0.2c0.4,0.4,0.5,1,0.1,1.4l-4.3,4.9c-0.2,0.2-0.5,0.3-0.8,0.3
				c-0.2,0-0.5-0.1-0.7-0.2c-0.4-0.4-0.5-1-0.1-1.4l4.3-4.9C65.8,84.7,66.1,84.6,66.3,84.6 M66.3,74.6
				C66.3,74.6,66.3,74.6,66.3,74.6c-3.2,0-6.2,1.4-8.3,3.8l-4.3,4.9c-1.9,2.2-2.9,5-2.7,8c0.2,2.9,1.5,5.6,3.7,7.5
				c2,1.8,4.6,2.7,7.2,2.7c3.2,0,6.2-1.4,8.3-3.7l4.3-4.9c4-4.6,3.5-11.5-1-15.5C71.6,75.5,69,74.6,66.3,74.6L66.3,74.6z"/>
		</g>
	</g>
	<g>
		<g>
			<path class="st0" d="M65.3,78.9c0.4,0,0.9,0.3,1,0.8c0.1,0.5-0.2,1.1-0.7,1.2c-1.9,0.5-3.8,0.7-5.8,0.7c-0.6,0-1.1,0-1.7-0.1
				c-0.6,0-1-0.5-0.9-1.1c0-0.5,0.5-0.9,1-0.9c0,0,0,0,0.1,0c0.5,0,1,0.1,1.5,0.1c1.8,0,3.6-0.2,5.3-0.6
				C65.1,78.9,65.2,78.9,65.3,78.9 M65.3,68.9c-0.9,0-1.7,0.1-2.6,0.3c-1,0.2-2,0.4-3,0.4c-0.3,0-0.6,0-0.9,0c-0.2,0-0.5,0-0.7,0
				c-5.8,0-10.6,4.5-11,10.3c-0.2,2.9,0.8,5.8,2.7,8c1.9,2.2,4.6,3.5,7.5,3.7c0.8,0.1,1.6,0.1,2.3,0.1c2.7,0,5.5-0.3,8.1-1
				c2.9-0.7,5.3-2.5,6.8-5c1.5-2.5,2-5.5,1.3-8.3C74.7,72.4,70.4,68.9,65.3,68.9L65.3,68.9z"/>
		</g>
	</g>
	<g>
		<g>
			<path class="st0" d="M118.9,250.7c0.4,0,0.8,0.1,1.2,0.5c2.8,2.2,3.1,7.8,3,9.8c-0.1,1.4-0.3,2.4-0.8,3.3c-0.7,1.2-1.8,2-3.1,2.2
				c-0.1,0-0.2,0-0.4,0c-1.5,0-3-1-3.7-2.6c-0.7-1.5-0.6-3.2-0.4-4.4c0,0,0,0,0,0c0.2-1.8,0.7-3.5,1.4-5.2c0.1-0.1,0.1-0.3,0.2-0.5
				c0.4-1.2,1-2.6,2.2-2.9C118.5,250.8,118.7,250.7,118.9,250.7 M116.6,259.7L116.6,259.7c-0.1,0.9-0.2,2.2,0.3,3.3
				c0.3,0.7,1.1,1.4,1.9,1.4c0,0,0.1,0,0.1,0c0.6-0.1,1.2-0.5,1.5-1.2c0.3-0.6,0.5-1.4,0.6-2.4c0.1-2.4-0.5-6.6-2.2-8.1
				c-0.3,0.3-0.6,1.2-0.8,1.6c-0.1,0.2-0.1,0.4-0.2,0.5C117.3,256.5,116.8,258.1,116.6,259.7 M118.9,240.7c-1.1,0-2.1,0.1-3.1,0.4
				c-6,1.7-8.1,7.2-8.8,9l-0.1,0.2c-1,2.5-1.7,5.1-2.1,7.8c-0.5,3.7,0,6.9,1.3,9.8c2.3,5.1,7.4,8.4,12.8,8.4c0.5,0,1,0,1.4-0.1
				c4.4-0.5,8.4-3.2,10.7-7.2c1.2-2.2,1.9-4.7,2.1-7.6c0.1-2,0.3-12.5-6.8-18.1C124.1,241.6,121.6,240.7,118.9,240.7L118.9,240.7z"
				/>
		</g>
	</g>
	<g>
		<g>
			<path class="st0" d="M133.6,225.1c0.1,0,0.2,0,0.3,0c0.5,0.2,0.8,0.7,0.7,1.3l-0.5,1.6c-0.2,0.7-0.7,1.1-1.1,1.4
				c-0.2,0.1-0.3,0.3-0.4,0.4c-0.6,0.8-0.7,1.9-0.5,3.2c0.2,1,0.7,2,1.2,3l0.3,0.7c1.3,2.9,2,5.4,2.1,7.8c0.1,3-0.8,5.9-2.5,7.9
				c-1.1,1.3-2.8,2.4-4.6,2.4c-0.6,0-1.1-0.1-1.7-0.4c-1.9-0.9-2.9-3.1-2.8-6.1c0.1-1.7,0.3-3.4,0.6-5.1c0.4-2.8,0.9-5.4,0.3-8
				c-0.2-0.8-0.6-1.6-1.1-1.6c0,0,0,0,0,0c-0.3,0-0.7,0.3-1.1,0.5l-3.9,2.9c-0.6,0.4-1.8,1.3-3.2,1.3c-0.4,0-0.7-0.1-1.1-0.2
				c-1.5-0.6-2-2.3-2.2-3.3c-0.3-1.1-0.6-2-0.9-2.9c-0.3-0.9-0.6-1.9-0.9-3c-0.1-0.5,0.2-1.1,0.7-1.2c0.1,0,0.2,0,0.3,0
				c0.4,0,0.8,0.3,1,0.7c0.3,1.1,0.6,2,0.9,2.9c0.3,0.9,0.6,1.9,0.9,3c0.2,0.9,0.5,1.7,1.1,2c0.1,0,0.2,0.1,0.3,0.1
				c0.6,0,1.4-0.5,2-0.9l3.9-2.9c0.5-0.4,1.3-0.9,2.3-0.9c0,0,0,0,0,0c1.4,0,2.5,1.2,3,3.1c0.7,2.9,0.2,5.9-0.3,8.7
				c-0.3,1.6-0.5,3.2-0.6,4.8c0,0.8,0,3.4,1.6,4.2c0.3,0.1,0.6,0.2,0.9,0.2c1.1,0,2.2-0.7,3-1.7c1.4-1.7,2.1-4,2-6.6
				c-0.1-2.1-0.7-4.4-1.9-7.1l-0.3-0.7c-0.5-1.1-1-2.2-1.3-3.4c-0.4-1.8-0.1-3.6,0.8-4.9c0.2-0.3,0.5-0.5,0.7-0.7
				c0.2-0.1,0.4-0.3,0.4-0.4l0.5-1.6C132.8,225.4,133.2,225.1,133.6,225.1 M133.6,215.1C133.6,215.1,133.6,215.1,133.6,215.1
				c-4.5,0-8.4,2.7-10.1,6.7c-1.1,0-2.1,0.2-3,0.5c-2-2.8-5.3-4.5-8.9-4.5c-0.9,0-1.9,0.1-2.8,0.4c0,0-0.1,0-0.1,0
				c-5.8,1.6-9.3,7.7-7.7,13.5c0.4,1.5,0.8,2.6,1.1,3.6c0.3,0.9,0.5,1.5,0.7,2.4c1.3,4.9,4,8.2,8,9.9c1.1,0.4,2.2,0.7,3.3,0.9
				c-0.1,6.9,3.1,12.5,8.5,15.1c1.9,0.9,3.9,1.3,5.9,1.3c4.6,0,9.2-2.3,12.3-6c3.3-3.9,4.9-9.1,4.7-14.6c-0.1-3.6-1.1-7.3-2.8-11.3
				c0.3-0.5,0.5-1.1,0.7-1.8l0.5-1.7c0.9-2.8,0.6-5.8-0.7-8.4c-1.4-2.6-3.6-4.5-6.4-5.4C135.9,215.3,134.8,215.1,133.6,215.1
				L133.6,215.1z"/>
		</g>
	</g>
	<path class="st0" d="M62,109.9c6.1,2.4,13.2,1.8,19.1-1c5.2-2.4,9.9-6.9,10.9-12.6c0.8-4.2-0.5-8.5-2.3-12.3
		C83.9,72.2,64.5,60,53.5,73.2C44.5,84.1,48.7,104.8,62,109.9z"/>
</g>
<g id="Слой_6">
	<path class="st1" d="M197.2,248.3c3.8,3.2,8.5,5,13.5,5.1c-1.3-6.7-2.2-13.7-3.8-20.4c1.9,0.2,3.8,0.1,5.7-0.1
		c1.3-0.2,2.5-0.4,3.8-0.6c5.2-0.9,11-1.6,16.3-1.7c-4.2-7.6-7.8-15.6-13.1-22.5c7.6-5.1,15.1-10.3,22.7-15.4
		c-8.5-3.4-17.6-7.2-22.7-14.8c5.9-4.9,11.9-9.7,17.8-14.6c5.6-4.6,12.2-9.6,18.6-12.8c-12.4-7.8-28.2-8.2-40.7-15.9
		c13.7-19.9,24.2-42,31.2-65.1c-9.3,1.2-18.2,4.8-27,8.3c-4.2,1.7-8.4,3.4-12.6,5.1c-6,2.4-13,5.1-19.4,3.9c-1-22.3-1-44.4-0.3-66.7
		c-10.7,7.5-21.4,15.1-30.7,24.4s-17.1,20.3-20.7,32.9C121,63.7,107.6,47.8,91.9,35.3c-0.4,18.8-4,20.3-2.8,39
		c0.2,2.9,3.5,23.1,3.2,25.9c-0.3,3.3-1.3,6.5-1.2,9.8c-6.1,1-12.5,2.2-18.6,3.2c-8.6,1.4-17.6,2.9-26,0.2c1.5,3.4,4.3,6.1,6.8,8.8
		c9.3,10.2,15.7,22.6,22,34.9c-8.2,6.1-17.1,11.7-26.6,15.3c3.6,2.5,5.8,6.1,9.3,8.7c2.3,1.7,4.9,2.7,7.3,4.3
		c4.6,3.1,7.5,8,10.3,12.7c-4.1,7.2-7.9,13.6-2.4,24.6c-2.9,2.8-6.5,6.7-9.6,9.3c5.4,1.4,10.6,2.9,16,4.3c0,0-2.4,11.5,13,11
		c0,0,5.8,32.4,41.5,32.4s46.5-15.3,50.6-20.5c4.1-5.2,5.6-9.7,5.6-9.7L197.2,248.3z"/>
	<path class="st2" d="M196.3,248.5c10.4-4.7,4.7-15.8,4.7-15.8l0.2-5.2c6.3-0.2,12.8-2.5,13.2-17.1c0.4-14.6-11.4-15.9-11.4-15.9
		c1.4-13.3,5.8-69.4-15.8-91.4c-7.3-7.6-17.4-12.3-27.8-14s-21.8-0.1-31.7,3.4c-54.1,19.1-42.9,101.3-42.9,101.3l-9.3,4.2
		c-1.8,3.7-3.5,7.3-4.2,11.3c-0.7,4.1-0.3,8.4,1.6,12c2,3.6,5.7,6.4,9.8,6.6c-1.1,2.5-2.1,4.9-2.5,7.6c-0.4,2.7,0.1,5.7,1.9,7.8
		c2.4,2.8,6.4,3.5,10.1,3.4c0.8,9.3,6.8,17.3,14.1,23.2s16.6,9,26,9.6c9.4,0.6,18.8-1.3,27.5-4.6c12.9-4.8,25.1-13.5,30.5-26.1
		C191.9,248.9,194.9,249.1,196.3,248.5z"/>
	<path class="st3" d="M151.2,145.6c0,0-6.6,9.2-5,22.9c1.6,13.7,14.6,19.8,26.5,20.7c11.9,0.9,30.3-12.1,24.7-32.8"/>
	<path class="st1" d="M105.3,136c0,0,11.6-6.1,39.7-5.8c28.1,0.2,41.7,11.2,46.4,10.3c4.7-0.9,4.7-9-7.7-14.1
		c-12.4-5.2-37.8-11.7-60.2-7.9c-13.2,2.2-21.3,7-22,12.1C100.8,135.7,105.3,136,105.3,136z"/>
	<path class="st4" d="M42.6,71.4c1.1,2.2,3.3,3.9,5.7,4.5c1.8,0.4,3.9,0.2,5.2-1.2c1.2-1.4,1.3-3.4,0.8-5.2
		c-0.6-2.5-2.1-4.9-4.4-6.1c-2-1.1-5.3-1.2-7.1,0.5C40.9,65.7,41.6,69.4,42.6,71.4z"/>
	<path class="st4" d="M60.8,58.5c-0.5,1-0.7,2.1-0.4,3.2s1.3,1.9,2.4,1.9c0.9,0,1.7-0.5,2.3-1.1c1-0.8,1.9-1.8,2.2-3.1
		c0.4-1.2,0.2-2.7-0.8-3.6C64.3,53.9,61.7,56.6,60.8,58.5z"/>
	<path class="st4" d="M115.7,259.6c-0.2,1.3-0.2,2.7,0.4,3.9c0.5,1.2,1.8,2.1,3.1,2c1-0.1,1.8-0.8,2.3-1.7c0.5-0.9,0.6-1.9,0.7-2.8
		c0.1-2.5-0.5-7.2-2.6-8.9c-1.3-1-2,1.5-2.5,2.6C116.4,256.3,115.9,257.9,115.7,259.6z"/>
	<path class="st4" d="M111.7,229c0.6,2.3,1.2,3.7,1.9,5.9c0.3,1,0.7,2.2,1.7,2.6c1.1,0.5,2.3-0.3,3.3-1c1.3-1,2.6-1.9,3.9-2.9
		c0.5-0.4,1.1-0.7,1.7-0.7c1.1,0,1.8,1.3,2,2.4c1,4.4-0.7,8.8-0.9,13.3c-0.1,2,0.4,4.3,2.2,5.1c1.7,0.8,3.8-0.3,5.1-1.8
		c1.6-2,2.3-4.7,2.2-7.2c-0.1-2.6-0.9-5.1-2-7.4c-0.6-1.3-1.3-2.5-1.6-3.9c-0.3-1.4-0.2-2.9,0.6-4c0.4-0.5,1.1-0.8,1.3-1.5l0.5-1.6"
		/>
	<path class="st0" d="M90.7,157.8c-1.4,6.9,0,14.3,3.7,20.3c12.7-0.6,25.4-1.1,38.1-1.7c4.5-5.1,6.5-12.6,5.4-19.3
		c-0.1-0.9-0.4-1.9-1.1-2.6c-0.8-0.7-1.9-0.8-3-0.9c-6.7-0.2-13.3,0.5-20,1.3C106,155.8,98.4,157,90.7,157.8z"/>
	<path class="st0" d="M146.3,161c-1.5,6.4,0.6,13.5,5,18.4c4.4,5,10.7,8,17.3,9c3.7,0.6,7.5,0.5,11-0.6c3.6-1.2,6.7-3.4,9.4-6
		c4.1-3.8,7.5-8.6,8.7-14.1c-9.8-2.4-20.7-0.3-30.5-2.6c-3.6-0.9-7-2.3-10.6-3.4S150,160.3,146.3,161z"/>
</g>
<g id="Слой_5">
	<path class="st5" d="M197.1,248.3c3.8,3.2,8.5,5,13.5,5.1c-1.3-6.7-2.2-13.7-3.8-20.4c1.9,0.2,3.8,0.1,5.7-0.1
		c1.3-0.2,2.5-0.4,3.8-0.6c5.2-0.9,11-1.6,16.3-1.7c-4.2-7.6-7.8-15.6-13.1-22.5c7.6-5.1,15.1-10.3,22.7-15.4
		c-8.5-3.4-17.6-7.2-22.7-14.8c5.9-4.9,11.9-9.7,17.8-14.6c5.6-4.6,12.2-9.6,18.6-12.8c-12.4-7.8-28.2-8.2-40.7-15.9
		c13.7-19.9,24.2-42,31.2-65.1c-9.3,1.2-18.2,4.8-27,8.3c-4.2,1.7-8.4,3.4-12.6,5.1c-6,2.4-13,5.1-19.4,3.9c-1-22.3-1-44.4-0.3-66.7
		c-10.7,7.5-21.4,15.1-30.7,24.4c-9.3,9.2-17.1,20.3-20.7,32.9c-14.8-13.7-28.1-29.6-43.9-42.1c-0.4,18.8-4,20.3-2.8,39
		c0.2,2.9,3.5,23.1,3.2,25.9c-0.3,3.3-1.3,6.5-1.2,9.8c-6.1,1-12.5,2.2-18.6,3.2c-8.6,1.4-17.6,2.9-26,0.2c1.5,3.4,4.3,6.1,6.8,8.8
		c9.3,10.2,15.7,22.6,22,34.9c-8.2,6.1-17.1,11.7-26.6,15.3c3.6,2.5,5.8,6.1,9.3,8.7c2.3,1.7,4.9,2.7,7.3,4.3
		c4.6,3.1,7.5,8,10.3,12.7c-4.1,7.2-7.9,13.6-2.4,24.6c-2.9,2.8-6.5,6.7-9.6,9.3c5.4,1.4,10.6,2.9,16,4.3c0,0-2.4,11.5,13,11
		c0,0,5.8,32.4,41.5,32.4s46.5-15.3,50.6-20.5c4.1-5.2,5.6-9.7,5.6-9.7L197.1,248.3z"/>
	<path class="st3" d="M75.4,198l9.3-4.2c0,0-11.2-82.2,42.9-101.3c9.9-3.5,21.3-5.1,31.7-3.4s20.5,6.3,27.8,14
		c21.6,22,17.2,78.1,15.8,91.4c0,0,11.8,1.3,11.4,15.9c-0.4,14.6-7,16.8-13.2,17.1l-0.2,5.2c0,0,5.7,11.1-4.7,15.8"/>
	<path class="st3" d="M202.9,194.5c0,0-0.4,11.2,0,20.7"/>
	<line class="st3" x1="84.8" y1="193.8" x2="85.7" y2="210.6"/>
	<path class="st3" d="M95.5,219.6c0,0-16.6,6.4-15.8,21.2"/>
	<path class="st3" d="M101.4,244.1c0,0-6.4,3.5-13.4,2.6"/>
	<path class="st3" d="M72.1,220.5c0,0,4.7,7.5,10.9,7.9"/>
	<path class="st3" d="M95.5,232c0,0,39.7-14.6,92.5,2.5"/>
	<path class="st3" d="M188.1,221.7c0,0,10.2,3.6,13.5,12.8"/>
	<path class="st3" d="M175.9,244.1c0,0,5,6.3,15.3,5.1"/>
	<path class="st3" d="M135.3,180.1c0,0-13.2,30.8-3.6,36.6c9.7,5.8,13.2-16.2,13.2-16.2"/>
	<path class="st3" d="M154.4,195.4c0,0,10.6,7.4,24.7,1.6"/>
	<path class="st3" d="M99.4,191.3c0,0,9.7,6.1,20.2,1.1"/>
	<path class="st3" d="M97.8,145.5c0,0-9.7,7.4-7.4,22.9s14.8,15.3,14.8,15.3"/>
	<path class="st3" d="M131,142.1c0,0,8.8,8.1,6.7,21.6c-2,13.5-12.1,18.6-12.1,18.6"/>
	<path class="st3" d="M151.1,145.5c0,0-6.6,9.2-5,22.9c1.6,13.7,14.6,19.8,26.5,20.7c11.9,0.9,30.3-12.1,24.7-32.8"/>
	<path class="st3" d="M90.7,158c0,0,12.1-3.1,26.9-3.7c14.8-0.7,19,0,19,0"/>
	<line class="st3" x1="96.4" y1="178.5" x2="132.5" y2="176.2"/>
	<path class="st3" d="M146,160.3c0,0,10.8,1.8,17.5,4.3c6.7,2.5,34.5,2.7,34.5,2.7"/>
	<path class="st3" d="M105.2,135.9c0,0,11.6-6.1,39.7-5.8c28.1,0.2,41.7,11.2,46.4,10.3c4.7-0.9,4.7-9-7.7-14.1
		c-12.4-5.2-37.8-11.7-60.2-7.9c-13.2,2.2-21.3,7-22,12.1C100.7,135.6,105.2,135.9,105.2,135.9z"/>
	<path class="st3" d="M106.6,162.1c0.4,2.8,0.9,5.5,1.6,8.2c-1.2-1.9-3-3.4-5.2-4.2c2.6-0.2,5.2-0.9,7.5-2.1
		c-2.8,1.7-5.5,3.4-8.2,5.2c2.6-1.2,5.6-1.7,8.5-1.3c-0.3,0.1-0.6,0.2-0.9,0.3"/>
	<path class="st3" d="M172.4,172.5c-0.1,2.8,0,5.5,0.3,8.2c-1.2-2.6-2.5-5.2-3.8-7.7c-0.3,0.3,0.1,0.8,0.5,1
		c1.8,0.8,3.8,1.2,5.7,1.1c-2.4,0.6-4.7,1.5-6.9,2.5c1.6,0,3.1,0,4.7,0c1,0,2,0.1,2.7,0.8c0.1,0.1,0.2,0.2,0.3,0.2
		c0.1,0,0-0.3-0.1-0.2"/>
	<path class="st3" d="M42.5,71.3c1.1,2.2,3.3,3.9,5.7,4.5c1.8,0.4,3.9,0.2,5.2-1.2c1.2-1.4,1.3-3.4,0.8-5.2
		c-0.6-2.5-2.1-4.9-4.4-6.1c-2-1.1-5.3-1.2-7.1,0.5C40.9,65.6,41.5,69.3,42.5,71.3z"/>
	<path class="st3" d="M60.7,58.4c-0.5,1-0.7,2.1-0.4,3.2s1.3,1.9,2.4,1.9c0.9,0,1.7-0.5,2.3-1.1c1-0.8,1.9-1.8,2.2-3.1
		c0.4-1.2,0.2-2.7-0.8-3.6C64.2,53.8,61.6,56.5,60.7,58.4z"/>
	<path class="st3" d="M66.7,70.9c0.3,2,1.2,3.9,2.6,5.4"/>
	<path class="st3" d="M72.4,79.2c1.4-1.7,3-3.1,4.9-4.3"/>
	<path class="st3" d="M75.6,82.1c2,0.2,4.1,0.4,6.1,0.6"/>
	<path class="st3" d="M72.6,86.3c0.8,1.4,1.5,2.7,2.3,4.1"/>
	<path class="st3" d="M62.1,90.4c1.4-1.6,2.8-3.2,4.3-4.9"/>
	<path class="st3" d="M58.1,80.5c2.4,0.2,4.8,0,7.2-0.6"/>
	<path class="st3" d="M115.6,259.5c-0.2,1.3-0.2,2.7,0.4,3.9s1.8,2.1,3.1,2c1-0.1,1.8-0.8,2.3-1.7c0.5-0.9,0.6-1.9,0.7-2.8
		c0.1-2.5-0.5-7.2-2.6-8.9c-1.3-1-2,1.5-2.5,2.6C116.3,256.2,115.9,257.8,115.6,259.5z"/>
	<path class="st3" d="M111.6,228.9c0.6,2.3,1.2,3.7,1.9,5.9c0.3,1,0.7,2.2,1.7,2.6c1.1,0.5,2.3-0.3,3.3-1c1.3-1,2.6-1.9,3.9-2.9
		c0.5-0.4,1.1-0.7,1.7-0.7c1.1,0,1.8,1.3,2,2.4c1,4.4-0.7,8.8-0.9,13.3c-0.1,2,0.4,4.3,2.2,5.1c1.7,0.8,3.8-0.3,5.1-1.8
		c1.6-2,2.3-4.7,2.2-7.2s-0.9-5.1-2-7.4c-0.6-1.3-1.3-2.5-1.6-3.9c-0.3-1.4-0.2-2.9,0.6-4c0.4-0.5,1.1-0.8,1.3-1.5l0.5-1.6"/>
</g>
</svg>
